<svg width="512" height="512" viewBox="0 0 512 512" fill="none" xmlns="http://www.w3.org/2000/svg">
<path fill-rule="evenodd" clip-rule="evenodd" d="M242.349 33.269C236.529 33.567 224.271 35.006 217.347 36.2032C183.978 41.9737 151.733 55.677 124.303 75.7448C113.508 83.6424 107.219 89.0661 97.6435 98.7384C61.643 135.103 40.8979 177.92 34.4349 229.196C32.521 244.378 32.522 267.683 34.4364 282.7C42.4599 345.633 72.6977 397.545 123.886 436.265C143.907 451.41 168.476 463.73 193.614 471.231C204.919 474.604 217.673 477.218 231.852 479.068L238.85 479.98L256.845 479.99L274.839 480L282.087 479.096C325.481 473.686 362.641 457.981 396.052 430.931C444.698 391.547 473.258 338.289 479.302 275.688C480.122 267.195 480.248 245.734 479.526 237.74C477.586 216.295 472.35 193.774 464.802 174.411C461.81 166.737 453.569 149.926 449.278 142.746C438.886 125.357 428.57 111.957 415.18 98.4534C384.039 67.0471 344.562 45.8946 300.88 37.209C284.303 33.9128 260.738 32.3266 242.349 33.269ZM247.247 164.088L236.149 164.359L235.5 165.012C235.094 165.422 234.852 166.963 234.852 169.141V172.616L235.615 173.384C236.148 173.919 238.188 174.3 242.372 174.644C251.861 175.423 254.86 176.97 257.588 182.491C258.144 183.618 263.522 204.265 269.539 228.373L280.48 272.206L279.748 272.942L279.017 273.677H268.023C261.4 273.677 256.644 273.47 256.062 273.157L255.095 272.637L255.072 242.874C255.059 226.505 254.859 208.019 254.627 201.793L254.205 190.475L253.374 188.474C252.131 185.482 250.226 183.776 247.112 182.862L244.349 182.052L218.856 182.354L193.364 182.656L190.475 183.431C186.586 184.475 183.747 185.962 181.493 188.137C179.133 190.413 179.09 191.581 181.334 192.523C182.277 192.919 183.177 193.451 183.333 193.706C183.489 193.96 182.81 195.603 181.824 197.357C180.838 199.111 177.871 205.006 175.23 210.456C172.59 215.907 170.079 220.504 169.651 220.672C168.765 221.02 164.98 221.319 134.632 223.434C98.9351 225.922 101.135 225.569 96.9043 229.491C94.543 231.68 92.1347 236.489 91.7693 239.745L91.5389 241.801L92.4026 242.522L93.2664 243.242L121.572 243.862C137.14 244.203 151.413 244.723 153.29 245.018C161.713 246.339 166.308 251.277 173.645 266.892C178.313 276.826 179.561 280.919 178.405 282.508L177.741 283.421L177.051 282.695C176.671 282.297 173.956 277.107 171.018 271.164C163.69 256.341 159.622 251.259 153.715 249.549C151.736 248.976 122.38 248.093 104.322 248.062L93.2559 248.044L92.0757 249.004L90.8956 249.964L90.7471 263.077L90.5982 276.19H84.3491H78.1L76.6919 276.922C74.9285 277.839 74.6506 279.147 74.6506 286.528V292.218L75.8572 293.628L77.0638 295.038L86.479 294.864C95.5022 294.697 97.1432 294.424 97.1442 293.092C97.1452 291.849 100.334 285.854 102.707 282.636C104.09 280.76 106.792 277.763 108.712 275.976L112.202 272.727L117.294 270.184C120.282 268.692 123.935 267.31 126.135 266.841L129.884 266.041L135.882 266.266L141.88 266.49L146.259 268.015C154.043 270.726 160.541 275.521 165.625 282.305C169.481 287.451 171.115 290.716 173.133 297.313C174.019 300.209 175.088 302.973 175.509 303.457L176.274 304.337H211.158H246.042L246.819 303.219C247.362 302.441 247.598 300.918 247.598 298.193V294.284H281.512H315.427L316.819 290.989C321.711 279.416 331.874 270.444 343.919 267.065L347.817 265.972H353.565C360.407 265.972 364.515 266.863 370.256 269.589C381.191 274.782 389.8 285.232 393.292 297.551C394.365 301.333 394.773 301.823 396.851 301.823H398.528L399.321 300.608L400.113 299.392L400.008 294.702L399.904 290.012L404.522 289.761L409.14 289.509L410.142 288.263L411.144 287.016L410.971 280.867L410.798 274.718L409.907 273.82L409.017 272.923L402.409 272.672L395.802 272.421L395.66 266.997L395.518 261.573L397.66 260.605C398.837 260.071 408.348 255.809 418.795 251.132L437.789 242.628L438.529 241.338L439.268 240.049L434.952 227.334C427.285 204.749 423.72 194.529 423.108 193.379L422.509 192.254H359.891H297.273L296.509 191.625C296.088 191.28 293.092 186.134 289.852 180.191C286.611 174.248 283.185 168.085 282.238 166.495L280.515 163.605L269.43 163.711C263.333 163.77 253.35 163.94 247.247 164.088ZM190.978 195.226C188.202 198.543 180.118 216.401 180.118 219.216C180.118 219.892 180.646 220.976 181.29 221.624L182.463 222.803L188.769 223.168C195.167 223.54 197.553 223.307 198.225 222.245C198.43 221.921 198.601 215.652 198.605 208.312L198.613 194.968L198.013 194.365C197.683 194.033 196.241 193.762 194.808 193.762H192.204L190.978 195.226ZM205.211 194.365L204.611 194.968V208.672V222.375L205.578 222.896C206.176 223.218 211.75 223.416 220.223 223.416H233.902L234.502 222.813L235.101 222.209V208.589V194.968L234.502 194.365L233.902 193.762H219.856H205.81L205.211 194.365ZM127.384 273.412C115.539 276.021 106.057 285.347 102.077 298.305L100.919 302.075V307.604V313.132L102.079 316.889C103.552 321.661 104.949 324.421 107.864 328.32C112.359 334.332 120.069 339.206 127.652 340.83L131.383 341.629L136.091 341.312C148.741 340.46 159.03 333.57 164.656 322.179C171.724 307.867 167.373 289.734 154.519 279.94C146.415 273.766 136.554 271.393 127.384 273.412ZM346.257 273.382C342.876 274.207 336.672 277.198 333.702 279.436C327.832 283.859 322.31 292.873 320.758 300.567C319.159 308.495 320.654 317.737 324.7 324.944C327.017 329.071 333.606 335.424 337.877 337.649C350.746 344.355 366.715 342.074 377.216 332.031C390.485 319.341 391.565 299.288 379.749 285C375.589 279.971 367.91 275.152 361.333 273.445C357.779 272.523 349.914 272.489 346.257 273.382ZM129.618 294.554C124.534 296.13 120.651 301.464 120.641 306.886C120.631 312.454 122.986 316.552 127.706 319.18L130.384 320.671L134.132 320.66L137.881 320.648L139.939 319.553C143.08 317.881 144.779 316.239 146.139 313.561L147.378 311.122V307.101V303.08L146.004 300.73C142.602 294.91 136.223 292.507 129.618 294.554ZM349.225 294.418C342.385 297.084 338.802 304.218 340.812 311.171L341.668 314.137L344.243 316.722L346.817 319.307L349.532 320.115C354.716 321.658 359.026 320.707 362.958 317.152C366.024 314.38 367.179 311.707 367.196 307.341C367.216 301.958 364.655 297.651 360.008 295.256C357.396 293.91 351.669 293.464 349.225 294.418Z" fill="#6D1F25"/>
</svg>
