<?xml version="1.0" encoding="utf-8"?><svg viewBox="0 0 512 512" xmlns="http://www.w3.org/2000/svg" xmlns:xlink="http://www.w3.org/1999/xlink"><style>:root>svg{display:none}:root>svg:target{display:block}</style><svg viewBox="0 0 512 512" id="arrow" xmlns="http://www.w3.org/2000/svg"><path fill-rule="evenodd" clip-rule="evenodd" d="m247.502 97.998-29.991 30.004 42.49 42.499L302.491 213H64v86H302.491l-42.492 42.501-42.493 42.501 29.999 29.999L277.504 444l93.997-94.001 93.996-94-94.002-94.002-94.002-94.003-29.991 30.004Z"/></svg><svg viewBox="0 0 512 512" id="arrow2" xmlns="http://www.w3.org/2000/svg"><path fill-rule="evenodd" clip-rule="evenodd" d="M61 117.035c-19.52 3.467-34.252 18.456-37.264 37.915l-1.115 7.206 1.125 6.57c.62 3.614 2.561 9.541 4.317 13.172l3.191 6.602 97.123 97.297c54.251 54.349 99.505 98.888 102.519 100.9 15.34 10.244 37.232 9.781 51.759-1.095 3.215-2.407 49.082-47.74 101.927-100.739l96.083-96.363 2.782-6.379c1.529-3.509 3.256-9.448 3.837-13.198l1.055-6.818-1.28-7.16c-5.204-29.121-37.463-45.681-64.009-32.859l-6.55 3.164-80.25 80.11L256 285.471l-81.25-81.07-81.25-81.07-6-2.606c-5.422-2.355-16.677-4.88-20.5-4.6-.825.061-3.525.47-6 .91Z"/></svg><svg viewBox="0 0 512 512" id="arrow3" xmlns="http://www.w3.org/2000/svg"><path fill-rule="evenodd" clip-rule="evenodd" d="M61 117.035c-19.52 3.467-34.252 18.456-37.264 37.915l-1.115 7.206 1.125 6.57c.62 3.614 2.561 9.541 4.317 13.172l3.191 6.602 97.123 97.297c54.251 54.349 99.505 98.888 102.519 100.9 15.34 10.244 37.232 9.781 51.759-1.095 3.215-2.407 49.082-47.74 101.927-100.739l96.083-96.363 2.782-6.379c1.529-3.509 3.256-9.448 3.837-13.198l1.055-6.818-1.28-7.16c-5.204-29.121-37.463-45.681-64.009-32.859l-6.55 3.164-80.25 80.11L256 285.471l-81.25-81.07-81.25-81.07-6-2.606c-5.422-2.355-16.677-4.88-20.5-4.6-.825.061-3.525.47-6 .91Z"/></svg><svg viewBox="0 0 500 500" id="arrow4" xmlns="http://www.w3.org/2000/svg"><path d="M345.583 0 375 29.417 169.146 235.27a20.832 20.832 0 0 0 0 29.458l205.5 205.459-29.459 29.458-205.458-205.458a62.501 62.501 0 0 1 0-88.375L345.583 0Z"/></svg><svg viewBox="0 0 500 500" id="call" xmlns="http://www.w3.org/2000/svg"><g clip-path="url(#ea)"><path fill-rule="evenodd" clip-rule="evenodd" d="M72.914 3.496c-12.67 4.53-20.967 10.834-34.611 26.299C1.85 71.113-3.92 85.973 2.086 123.047c6.422 39.633 37.303 98.539 79.867 152.344 20.818 26.318 116.002 121.488 142.406 142.388 26.018 20.594 48.93 35.946 73.828 49.467 39.557 21.481 64.641 30.133 93.215 32.149l4.451.314a64.646 64.646 0 0 0 22.594-2.41c20.545-5.973 65.6-43.951 75.106-63.309a53.418 53.418 0 0 0 5.47-23.548v-2.385c0-9.73-2.273-19.326-6.638-28.021l-1.621-3.229c-15.366-30.604-43.471-58.799-74.118-74.354l-4.09-2.076a55.27 55.27 0 0 0-25.206-5.982c-16.543.056-31.229 5.064-49.915 17.019l-6.231 3.987a31.155 31.155 0 0 1-16.79 4.911c-5.736 0-12.129-1.628-17.252-4.394-21.701-11.715-78.926-66.42-103.252-98.703-17.662-23.44-18.475-33.264-4.59-55.41 11.426-18.221 16.365-33.088 16.34-49.168a55.957 55.957 0 0 0-6.059-25.235l-2.062-4.062C182.156 53.03 154.256 25.11 123.85 9.61l-4.619-2.355A61.129 61.129 0 0 0 95.529.72L93.703.599a51.605 51.605 0 0 0-20.789 2.897Z"/></g><defs><clipPath id="ea"><path fill="#fff" d="M0 0h500v500H0z"/></clipPath></defs></svg><svg viewBox="0 0 512 512" id="cart" xmlns="http://www.w3.org/2000/svg"><path fill-rule="evenodd" clip-rule="evenodd" d="M67.852 27.391C57.997 30.912 51.648 40.144 51.61 51.01l-.023 6.51 2.274 4.696c2.549 5.265 7.71 10.248 13.065 12.613l3.573 1.578 18.94.547 18.94.547 21.347 85.396 21.348 85.396-14.883 15.104-14.883 15.104-3.049 6.5c-7.144 15.227-7.012 29.188.427 44.858 6.189 13.04 18.16 22.887 32.444 26.689l5.369 1.429 115.884.012 115.884.012 3.925-1.176c5.229-1.567 12.126-7.786 14.831-13.373l2.191-4.526-.369-7.31-.369-7.31-3.025-4.902c-3.401-5.514-11.044-10.743-17.184-11.758-2.072-.343-53.262-.628-113.754-.634L164.529 307l12.971-13 12.971-13 87.015-.01 87.014-.01 5.041-2.347c2.772-1.291 6.31-3.855 7.861-5.699 1.551-1.843 20.841-39.412 42.866-83.486l40.045-80.135.044-5.906c.024-3.249-.551-7.653-1.277-9.788-1.672-4.91-7.248-11.124-12.512-13.94L442.5 77.5 301.581 77l-140.92-.5-4.581-18.079-4.581-18.078-2.779-3.643c-3.425-4.49-8.137-8.06-12.619-9.562-2.259-.756-13.669-1.123-34-1.094l-30.601.044-3.648 1.303Zm89.766 357.658c-6.163 1.547-15.339 6.9-19.248 11.227-1.977 2.187-5.004 6.958-6.727 10.601l-3.133 6.623v18l3.077 6.503c11.334 23.955 41.26 30.068 60.409 12.34 6.775-6.272 10.532-13.098 12.096-21.972l1.067-6.06-1.088-5.905c-2.363-12.82-10.237-23.249-21.553-28.544l-6.431-3.01-7.293-.389c-4.012-.214-9.041.05-11.176.586Zm204.382.325c-7.471 2.057-12.241 4.798-17.561 10.09-6.715 6.68-10.455 14.715-11.154 23.956l-.543 7.179 1.71 5.951c5.459 18.991 24.777 31.211 43.325 27.407 12.4-2.543 21.92-9.737 27.889-21.074l2.834-5.383v-22l-2.816-5.5c-8.462-16.527-26.918-25.242-43.684-20.626Z"/></svg><svg viewBox="0 0 512 512" id="catalog" xmlns="http://www.w3.org/2000/svg"><path fill-rule="evenodd" clip-rule="evenodd" d="M285.056 33.09c-7.01 1.375-18.117 7.226-23.335 12.292-6.242 6.06-10.33 12.622-12.757 20.473L247 72.211l.012 76.144.012 76.145 1.366 5.132c4.373 16.424 16.807 28.881 33.741 33.804l5.545 1.612 77.912-.274 77.912-.274 5.743-2.319c12.443-5.025 22.479-15.421 27.941-28.945l2.316-5.736.29-75.5.291-75.5-1.581-7.126c-3.752-16.909-17.525-31.131-34.419-35.541l-6.581-1.718-74 .052c-40.7.029-76 .444-78.444.923ZM72 77.011c-19.068 3.29-34.91 18.681-38.895 37.788-1.44 6.908-1.519 103.733-.09 111.315 3.233 17.152 16.26 31.797 32.84 36.922L72.211 265h108.426l5.431-1.612c8.738-2.592 14.942-6.233 20.882-12.254 6.406-6.493 10.337-13.298 12.517-21.669L221 223.58V118.42l-1.531-5.878c-4.749-18.234-19.53-32.049-37.927-35.45C174.73 75.833 79.24 75.763 72 77.011Zm-4 215.412c-8.045 2.295-14.204 5.837-20.667 11.882l-6.34 5.931-3.498 7.132c-1.924 3.923-3.947 9.556-4.496 12.518-.58 3.132-.999 26.495-.999 55.803v50.416l1.56 6.854c3.79 16.668 17.618 30.838 34.36 35.208l6.58 1.718 51.114.057c30.042.034 53.334-.354 56.5-.941 2.962-.549 8.595-2.572 12.518-4.496l7.132-3.497 5.916-6.325c6.473-6.92 10.419-14.221 12.267-22.698l1.196-5.485-.322-54.5-.321-54.5-2.312-5.725c-5.007-12.395-15.593-22.956-28.069-28.002L184.5 291.5l-56-.181-56-.18-4.5 1.284Zm214.105.16c-16.115 4.333-28.562 16.726-33.493 33.349L247 331.363v108.426l1.964 6.356c5.021 16.245 18.189 28.321 35.276 32.349l6.26 1.476 50.701.015c33.208.01 52.529-.366 56-1.09 16.422-3.425 29.908-15.257 36.069-31.646l2.16-5.749.344-52c.235-35.62-.012-54.048-.786-58.5-3.258-18.752-18.731-35.11-36.787-38.89-3.52-.737-22.996-1.088-58-1.044l-52.701.066-5.395 1.451Z"/></svg><svg viewBox="0 0 512 512" id="drop" xmlns="http://www.w3.org/2000/svg"><path fill-rule="evenodd" clip-rule="evenodd" d="M128.25 255.75 256 383.499 383.75 255.75 511.499 128H.501L128.25 255.75Z"/></svg><svg viewBox="0 0 512 512" id="edit" xmlns="http://www.w3.org/2000/svg"><g clip-path="url(#ia)"><path fill-rule="evenodd" clip-rule="evenodd" d="M425.468 2.05c-18.158 4.582-23.944 9.826-150.752 136.65L148.43 265l-19.214 58C118.646 354.9 110 383.096 110 385.654c0 6.01 10.336 16.346 16.346 16.346 2.558 0 30.754-8.646 62.654-19.216l58-19.214 126.3-126.286c127.052-127.036 113.002-113.569 125.502-129.569l5-9.5 3.5-9c6-20 6.208-30.187-2.176-48.503-6.19-13.52-20.45-27.708-34.152-33.982-12.164-5.568-33.346-7.746-45.506-4.68ZM44.652 38.088c-16.756 3.314-30.296 13.394-37.75 28.106L2 75.868v396.87l4.168 8.608c5.754 11.888 20.164 24.058 32.852 27.746l10.37 3.014 174.804-.552L399 511l10.878-6c11.138-6.142 21.07-17.698 25.47-29.632l2.348-6.368.152-101.322.152-101.322-6.154-5.178c-9.52-8.012-21.262-5.976-26.75 4.636L402 271.802v191.974l-4.826 5.612-4.826 5.612-169.674.534L53 476.068l-5.594-2.316c-3.078-1.274-6.902-4.844-8.5-7.934L36 460.198V86.064l5.834-6.532L47.668 73l118.344-1 118.344-1 3.822-4.722c7.568-9.35 4.024-22.726-7.274-27.448L274.128 36l-110.564.22c-60.81.12-114.32.96-118.912 1.868Z"/></g><defs><clipPath id="ia"><path fill="#fff" d="M0 0h512v512H0z"/></clipPath></defs></svg><svg viewBox="0 0 512 512" id="email" xmlns="http://www.w3.org/2000/svg"><g clip-path="url(#ja)"><path fill-rule="evenodd" clip-rule="evenodd" d="M34.65 56.049C9.68 60.239-6.679 94.384 2.922 122.275c5.527 16.058 21.709 37.339 38.514 50.653 3.335 2.642 36.439 25.942 73.564 51.778 37.125 25.836 73.8 51.451 81.5 56.922 26.066 18.52 39.225 25.693 51.613 28.134l7.887 1.553 7.887-1.553c12.37-2.437 25.489-9.584 51.581-28.098 7.683-5.452 44.133-30.85 81-56.44 36.868-25.591 69.957-48.871 73.532-51.734 21.275-17.04 37.061-40.129 40.33-58.99.939-5.419 1.549-7.193 1.892-5.5.305 1.507.559.515.641-2.5.195-7.207-2.464-19.058-5.834-26-3.397-6.998-12.12-16.143-18.934-19.852-2.61-1.42-7.393-3.272-10.63-4.115L471.58 55l-216.04.118c-118.822.064-218.222.483-220.89.931ZM.32 106c0 3.575.182 5.037.403 3.25.222-1.787.222-4.713 0-6.5-.221-1.787-.403-.325-.403 3.25ZM0 299.69c0 74.065.364 116.954 1.021 120.419 1.623 8.562 6.052 16.784 12.506 23.219 6.463 6.443 12.519 9.928 21.166 12.18L40.42 457h431.16l5.727-1.492c8.647-2.252 14.703-5.737 21.166-12.18 6.288-6.27 11.334-15.474 12.257-22.355.297-2.212.929-4.262 1.405-4.556.479-.296.865-52.38.865-116.619V183.715l-8.75 8.43c-10.895 10.497-10.123 9.933-65.75 48.049-25.3 17.336-64.225 44.402-86.5 60.147l-40.5 28.628-12 5.909c-6.6 3.251-15.825 7.178-20.5 8.728l-8.5 2.819h-29l-8.5-2.819c-4.675-1.55-13.9-5.477-20.5-8.727l-12-5.91-38-26.929c-20.9-14.811-59.15-41.439-85-59.172-57.326-39.328-60.045-41.304-69.75-50.707L0 184.653V299.69ZM.484 301c0 64.075.119 90.288.266 58.25.146-32.037.146-84.462 0-116.5C.603 210.713.484 236.925.484 301Z"/></g><defs><clipPath id="ja"><path fill="#fff" d="M0 0h512v512H0z"/></clipPath></defs></svg><svg viewBox="0 0 512 512" id="eye" xmlns="http://www.w3.org/2000/svg"><g clip-path="url(#ka)"><path fill-rule="evenodd" clip-rule="evenodd" d="M227 105.352c-56.348 7.072-110.954 31.322-157.148 69.79-17.562 14.626-46.888 44.896-59.806 61.734L1.09 248.548v14.904l8.89 11.774c14.494 19.202 59.588 62.754 80.02 77.29 47.23 33.596 101.198 52.596 156 54.922l25 1.06 22.774-3.358c44.2-6.518 89.172-25.038 128.05-52.73C461.192 324.368 514 267.312 514 252.822c0-1.682-.9-2.502-2-1.822-1.1.68-2-.012-2-1.538 0-4.484-29.704-38.976-50.386-58.51-60.538-57.17-133.078-87.704-205.87-86.652-11.41.164-23.444.638-26.744 1.052Zm3 45.806c-18.818 4.952-36.05 14.892-50 28.842-60.1 60.1-31.416 159.772 52.144 181.196L245 364.492l17-1.08c22.058-1.404 38.61-7.3 56.546-20.142 17.138-12.274 32.88-32.924 39.412-51.7 2.468-7.096 4.844-19.974 5.454-29.57l1.08-17-3.272-13c-14.876-59.094-74.432-95.786-131.22-80.842Zm11 49.52c-18.766 6.216-29.84 15.804-37.33 32.322l-4.534 10 .022 13 .02 13 4.534 10.214c5.642 12.708 16.25 23.232 29.288 29.054l10 4.468 13-.022c23.47-.036 42.64-12.38 52.358-33.714l4.556-10-.094-14-.094-14-5.184-10c-12.854-24.792-42.48-38.292-66.542-30.322ZM.316 256c0 2.75.454 3.876 1.008 2.5.556-1.374.556-3.624 0-5-.554-1.374-1.008-.25-1.008 2.5Z"/></g><defs><clipPath id="ka"><path fill="#fff" d="M0 0h512v512H0z"/></clipPath></defs></svg><svg fill="none" viewBox="0 0 512 512" id="facebook" xmlns="http://www.w3.org/2000/svg"><g clip-path="url(#la)"><path d="M0 120C0 53.726 53.726 0 120 0h272c66.274 0 120 53.726 120 120v272c0 66.274-53.726 120-120 120H120C53.726 512 0 458.274 0 392V120Z" fill="#fff"/><path fill-rule="evenodd" clip-rule="evenodd" d="M120.122 16.645c-25.722 3.1-50.956 15.58-69.965 34.602-17.683 17.695-29.39 40.097-33.868 64.811l-1.276 7.039V391.51l2.53 10.562c12.108 50.545 53.997 87.769 104.895 93.214 5.787.619 54.675.845 138.456.641l129.509-.318 8.446-1.972c16.55-3.866 31.225-10.255 44.523-19.382 9.046-6.209 22.729-19.756 29.07-28.781 10.553-15.021 18.681-35.075 20.773-51.251.593-4.589 1.458-9.077 1.923-9.973 1.21-2.339 1.117-258.148-.095-257.399-.557.343-.939-.738-.939-2.657 0-5.164-2.602-17.478-5.504-26.045-6.089-17.979-15.954-33.738-29.626-47.328-16.698-16.595-35.829-26.99-60.125-32.667l-8.446-1.974-131.856-.163c-72.52-.09-134.812.192-138.425.628Zm143.919 90.132c-17.661 2.279-33.447 12.229-41.926 26.427-6.992 11.709-9.553 24.365-9.553 47.209v14.48h-26.277v61.003h30.02l.24 74.376.24 74.377 28.389.249 28.389.248v-149.25h45.985l.01-1.643c.006-.904 1.057-13.256 2.336-27.451s2.331-27.182 2.336-28.859l.011-3.05h-47.179l.444-13.85.445-13.85 1.687-3.554c.927-1.955 3.002-4.275 4.609-5.155l2.924-1.601 18.065-.306 18.066-.307v-50.536l-26.512.119c-14.582.065-29.319.481-32.749.924ZM15 255.896c0 70.974.112 100.01.248 64.522.136-35.487.136-93.557 0-129.045-.136-35.487-.248-6.452-.248 64.523Z" fill="#6D1F25"/></g><defs><clipPath id="la"><path fill="#fff" d="M0 0h512v512H0z"/></clipPath></defs></svg><svg viewBox="0 0 512 512" id="favorite" xmlns="http://www.w3.org/2000/svg"><path fill-rule="evenodd" clip-rule="evenodd" d="M141.5 74.116c-32.02 4.652-61.558 23.013-78.67 48.902-7.149 10.814-10.16 16.867-13.813 27.772-11.379 33.964-6.276 70.922 13.992 101.344 5.931 8.901 178.953 182.352 184.491 184.947 5.103 2.392 11.894 2.393 17 .002 2.754-1.289 31.606-29.558 92.599-90.728l88.599-88.855 4.198-6.5c30.213-46.781 24.007-106.858-14.993-145.149-17.184-16.87-39.01-27.806-62.6-31.362-29.236-4.406-59.437 2.588-83.303 19.292-3.575 2.503-12.456 10.41-19.736 17.573l-13.237 13.023-13.763-13.509c-14.672-14.4-21.02-19.217-33.764-25.614-19.975-10.028-45.471-14.266-67-11.138Z"/></svg><svg viewBox="0 0 512 512" id="home" xmlns="http://www.w3.org/2000/svg"><path fill-rule="evenodd" clip-rule="evenodd" d="M248.5 34.371c-7.249 3.408-209.63 112.493-211.361 113.925-.801.662-2.275 3.004-3.276 5.204l-1.819 4-.022 154.538L32 466.576l2.25 4.462 2.25 4.462 4.462 2.25 4.462 2.25h66.554l.261-130.927.261-130.927 2.062-2.761c1.134-1.519 3.304-3.689 4.823-4.823l2.762-2.062h267.706l2.762 2.062c1.519 1.134 3.689 3.304 4.823 4.823l2.062 2.761.261 130.927.261 130.927h66.554l4.462-2.25 4.462-2.25 2.25-4.462 2.25-4.462-.022-154.538-.022-154.538-1.899-4.184c-1.156-2.546-3.399-5.142-5.728-6.632C467.517 143.608 270.293 37.516 263.5 34.35c-6.275-2.925-8.743-2.921-15 .021ZM144 264v24h224v-48H144v24Zm0 80v24h224v-48H144v24Zm0 80v24h224v-48H144v24Z"/></svg><svg fill="none" viewBox="0 0 512 512" id="instagram" xmlns="http://www.w3.org/2000/svg"><g clip-path="url(#oa)"><path d="M0 120C0 53.726 53.726 0 120 0h272c66.274 0 120 53.726 120 120v272c0 66.274-53.726 120-120 120H120C53.726 512 0 458.274 0 392V120Z" fill="#fff"/><path fill-rule="evenodd" clip-rule="evenodd" d="M216.107 16.185c-43.582 1.629-85.102 4.405-112.05 7.492-23.296 2.67-38.897 9.647-54.235 24.255-15.77 15.018-24.04 32.57-26.787 56.854-4.777 42.227-8.03 103.381-8.035 151.096-.008 58.779 5.755 148.321 10.78 167.52 7.37 28.154 29.034 51.047 57.18 60.423 14.257 4.75 61.539 9.092 123.771 11.366 63.42 2.319 141.298-.445 198.316-7.038 25.591-2.959 40.206-9.644 56.305-25.758 11.82-11.829 18.996-24.044 22.908-38.993 3.47-13.255 8.338-71.485 9.557-114.298.335-11.764.963-21.608 1.396-21.875.433-.269.787-14.846.787-32.396 0-21.033-.32-31.711-.938-31.329-.604.375-.939-3.355-.943-10.502-.019-32.713-6.176-110.559-9.859-124.64-7.364-28.148-29.033-51.047-57.178-60.423-11.718-3.903-47.38-7.641-99.393-10.418-18.819-1.004-95.782-1.926-111.582-1.336Zm-38.131 90.99c-33.412 6.14-60.82 31.702-70.391 65.651l-2.116 7.508V331.43l2.122 7.508c2.988 10.559 10.346 24.984 17.163 33.644 10.951 13.913 29.542 25.917 47.752 30.836l7.97 2.153h149.089l7.97-2.117c8.694-2.31 20.906-7.804 27.904-12.554 17.558-11.917 30.994-30.817 37.039-52.099l2.094-7.371V180.334l-2.077-7.305c-9.104-32.027-32.842-55.837-64.491-64.692l-7.502-2.098-72.669-.192-72.669-.192-7.188 1.32Zm8.015 29.496c-22.958 3.476-41.261 19.476-48.336 42.255l-2.187 7.039v139.834l2.187 7.039c6.053 19.491 19.756 33.604 38.948 40.115l7.624 2.586h140.649l7.033-2.188c19.396-6.035 33.6-19.85 40.079-38.982l2.585-7.631V185.965l-2.187-7.039c-6.155-19.817-20.041-33.869-40.008-40.487l-6.564-2.175-67.512-.16c-37.131-.088-69.671.167-72.311.567Zm138.329 24.731c-2.273 1.2-5.371 3.944-6.885 6.095l-2.753 3.912-.396 5.474-.395 5.475 1.921 3.769c2.561 5.023 7.667 9.368 12.568 10.694l3.998 1.082 4.632-1.067c11.118-2.559 17.362-12.991 14.23-23.773-3.352-11.542-16.427-17.206-26.92-11.661Zm-80.256 17.532c-2.674.391-7.93 1.644-11.681 2.783-25.356 7.709-44.127 26.922-52.024 53.248l-2.474 8.248-.079 12.2-.079 12.2 1.692 6.57c.931 3.613 3.535 10.417 5.787 15.121 11.743 24.529 34.243 40.505 61.596 43.736l9.128 1.078 8.265-1.102c35.949-4.79 63.106-31.971 67.892-67.951l1.101-8.272-1.078-9.137c-5.187-43.986-44.958-75.028-88.046-68.722Zm-3.298 31.787c-14.871 4.895-26.418 16.585-30.868 31.25l-1.97 6.492.422 9.575.422 9.575 2.085 5.373c4.496 11.583 15.335 22.457 27.074 27.163l5.369 2.151H266.741l5.368-2.151c11.697-4.689 22.455-15.456 27.139-27.163l2.149-5.373v-23.462l-2.149-5.373c-4.699-11.744-15.549-22.582-27.139-27.106l-5.368-2.096-10.314-.307-10.314-.308-5.347 1.76ZM15.4 255.882c0 17.808.126 25.093.28 16.189.155-8.904.155-23.473 0-32.378-.154-8.904-.28-1.619-.28 16.189Z" fill="#6D1F25"/></g><defs><clipPath id="oa"><path fill="#fff" d="M0 0h512v512H0z"/></clipPath></defs></svg><svg fill="none" viewBox="0 0 512 512" id="location" xmlns="http://www.w3.org/2000/svg"><path fill-rule="evenodd" clip-rule="evenodd" d="M227 2.83c-19.162 3.756-31.366 8.12-48.924 17.494-42.522 22.702-71.05 59.864-82.338 107.258a132.112 132.112 0 0 0-3.514 35.312l.288 8.106.402 11.3a105.816 105.816 0 0 0 5.034 28.7c7.522 23.344 13.844 34.17 81.77 140l62.223 96.947a21.26 21.26 0 0 0 8.651 7.663 12.49 12.49 0 0 0 10.83 0 21.246 21.246 0 0 0 8.671-7.675l64.941-101.253c69.948-109.056 76.11-120.214 82.186-148.806a123.43 123.43 0 0 0 2.615-30.074l-.351-9.802-.178-4.966A137.949 137.949 0 0 0 412.192 114c-9.124-27.104-19.76-43.962-41.01-65-23.972-23.732-44.38-35.506-76.304-44.022C278.216.532 244.204-.544 227 2.83Zm7.572 89.954c-27.754 9.058-47.046 31.236-52.41 60.25a66.133 66.133 0 0 0-.024 23.732c1.19 6.554 4.084 16.036 6.434 21.074 5.9 12.648 23.05 29.268 36.892 35.754A57.215 57.215 0 0 0 249.74 239h12.725c8.256 0 16.41-1.816 23.885-5.32 22.638-10.614 39.034-32.008 43.496-56.754l.026-.141a66.722 66.722 0 0 0-.036-23.859c-4.532-24.744-21.056-46.206-43.486-56.486a62.854 62.854 0 0 0-23.827-5.671L259 90.636c-9.782-.368-19.274.468-24.428 2.148ZM110.384 353.05c-26.402 8.778-46.142 19.196-59.496 31.402C37.632 396.566 32 407.762 32 422c0 14.238 5.632 25.434 18.888 37.548 24.858 22.72 68.05 38.084 134.112 47.708a334.702 334.702 0 0 0 48.253 3.496h45.494c16.147 0 32.274-1.168 48.253-3.496 66.062-9.624 109.254-24.988 134.112-47.708C474.368 447.434 480 436.238 480 422c0-28.208-26.638-51.616-78.472-68.962-11.57-3.87-22.818-7.038-25-7.038a7.22 7.22 0 0 0-6.092 3.345l-35.654 56.043c-20.78 32.662-41.262 62.808-45.514 66.992-7.76 7.63-22.39 13.62-33.268 13.62-10.886 0-25.508-5.99-33.268-13.628-4.252-4.186-24.784-34.332-45.626-66.992l-35.685-55.918a7.284 7.284 0 0 0-6.315-3.364c-2.258.054-13.384 3.182-24.722 6.952Z" fill="#6D1F25"/></svg><svg fill="none" viewBox="0 0 500 500" id="location2" xmlns="http://www.w3.org/2000/svg"><path fill-rule="evenodd" clip-rule="evenodd" d="M232.526.422c-32.319 3.365-61.807 14.74-86.332 33.305-37.492 28.38-60.139 65.901-67.867 112.439L77 154.162l.037 15.993.037 15.993 1.296 8.36c7.78 50.213 35.297 97.091 107.1 182.463 13.122 15.602 25.531 30.139 45.558 53.371l10.603 12.3 3.893 1.778 3.894 1.779 2.512-.407c1.381-.224 3.66-1.115 5.063-1.98 2.945-1.816 51.405-58.338 73.2-85.378 38.567-47.848 57.549-75.101 71.775-103.05 9.276-18.222 15.371-35.587 19.033-54.225l1.951-9.922.043-19.264c.046-19.515-.185-22.121-3.26-36.777-9.103-43.402-34.947-80.578-74.377-106.994-20.27-13.58-46.686-23.226-73.126-26.703C261.612.102 240.978-.457 232.526.422ZM161.129 403.16c-36.67 6.378-61.473 15.75-71.95 27.19-4.132 4.511-5.753 7.581-6.912 13.09l-.823 3.919 1.258 4.517c2.444 8.768 8.471 14.937 20.796 21.285 21.954 11.307 51.634 18.435 98.065 23.549l11.657 1.284 35.698.007c36.479.007 40.573-.201 65.555-3.336 38.7-4.858 72.889-14.65 89.26-25.568 5.178-3.453 10.883-9.297 12.891-13.206 2.225-4.333 2.953-10.719 1.67-14.66-1.474-4.53-5.624-10.192-10.074-13.743-5.285-4.218-16.332-9.626-27.418-13.421-20.883-7.148-53.633-14.02-58.595-12.295-1.24.432-4.294 3.487-7.758 7.765-15.983 19.729-33.019 40.19-36.321 43.622-4.811 4.999-10.371 8.657-16.378 10.772l-4.818 1.698-6.557.006c-10.83.011-19.031-2.99-26.311-9.629-2.25-2.052-9.593-10.451-16.318-18.665l-19.96-24.385c-7.831-9.571-10.543-12.028-13.179-11.937-.801.028-6.866.991-13.478 2.141Z" fill="#3F3F3F"/><ellipse cx="250.5" cy="170.5" rx="98.5" ry="97.5" fill="#F51E1E"/></svg><svg viewBox="0 0 512 512" id="phone" xmlns="http://www.w3.org/2000/svg"><g clip-path="url(#ra)"><path fill-rule="evenodd" clip-rule="evenodd" d="M237.5.6c-53.816 5.491-95.925 21.452-136.467 51.726-12.373 9.24-39.57 36.471-48.903 48.966C25.844 136.483 9.58 175.141 2.818 218.5l-2.184 14v47l2.184 14c4.314 27.665 11.753 51.267 23.763 75.393 12.89 25.894 25.44 43.764 44.919 63.954 22.074 22.88 43.893 38.923 71 52.203 26.015 12.746 48.316 19.828 76 24.137l14 2.179h47l14-2.184c43.271-6.748 82.135-23.122 117.412-49.467 12.34-9.215 39.588-36.463 48.803-48.803 20.937-28.035 36.127-59.614 44.371-92.242 3.331-13.185 6.902-35.335 6.909-42.861.003-2.58.455-4.969 1.005-5.309.595-.368 1-6.697 1-15.618 0-9.745-.35-14.784-1-14.382-.614.379-1.002-1.241-1.005-4.191-.007-7.63-3.557-29.71-6.909-42.979-8.31-32.89-23.476-64.422-44.244-91.992-8.909-11.826-28.228-32.063-39.964-41.863-35.901-29.976-79.504-49.528-126.165-56.573C281.056.991 247.242-.393 237.5.6Zm-94 101.304c-5.519 2.567-28.481 24.782-33.461 32.372-5.73 8.734-9.099 19.88-9.768 32.322l-.543 10.097 1.708 10.403c9.105 55.473 61.91 128.607 128.812 178.402 32.308 24.048 66.873 40.504 94.654 45.064l10.403 1.708 10.097-.543c12.442-.669 23.588-4.038 32.322-9.768 7.59-4.98 29.805-27.942 32.372-33.461a18.834 18.834 0 0 0-.015-16c-2.587-5.519-55.23-57.869-60.299-59.964-9.289-3.838-15.054-1.5-28.46 11.543-6.31 6.14-12.149 10.872-15.063 12.208l-4.759 2.183-8 .015-8 .015-9-4.798c-30.915-16.48-61.722-47.287-78.202-78.202l-4.798-9 .015-8 .015-8 2.183-4.759c1.336-2.914 6.068-8.753 12.208-15.063 5.513-5.667 10.712-11.949 11.552-13.959 2.035-4.871 1.894-10.342-.392-15.219-2.587-5.519-55.23-57.869-60.299-59.964-4.935-2.039-10.389-1.907-15.282.368ZM.402 256c0 8.525.154 12.012.34 7.75.189-4.262.189-11.238 0-15.5-.186-4.262-.34-.775-.34 7.75Z"/></g><defs><clipPath id="ra"><path fill="#fff" d="M0 0h512v512H0z"/></clipPath></defs></svg><svg viewBox="0 0 512 512" id="search" xmlns="http://www.w3.org/2000/svg"><g clip-path="url(#sa)"><path fill-rule="evenodd" clip-rule="evenodd" d="M232.5 1.018c-33.733 3.748-62.921 12.225-91 26.43C49.836 73.817-5.658 170.364 1.077 271.75c4.231 63.684 29.551 119.81 74.372 164.857 39.535 39.734 88.675 64.288 146.246 73.076l10.805 1.649 23.5.046 23.5.046 12-1.775c85.362-12.628 156.646-64.354 194.521-141.149 35.1-71.17 35.1-153.83 0-225C448.208 66.83 376.245 14.525 292 2.476 278.632.565 244.179-.28 232.5 1.018Zm-4.731 103.96c-61.908 7.85-110.485 54.294-121.338 116.009-1.914 10.882-1.935 34.937-.04 45.531 3.805 21.274 9.808 36.664 21.071 54.019 20.623 31.779 54.602 54.216 92.538 61.102 13.061 2.371 36.332 2.329 49-.088 20.492-3.911 42.32-13.205 57.5-24.483l8-5.943 27.5 27.332c15.125 15.033 28.483 27.83 29.684 28.438 4.793 2.425 11.557.438 14.668-4.309.942-1.438 1.648-4.535 1.648-7.227v-4.712l-28.157-28.27-28.158-28.27 1.408-1.922c16.778-22.909 24.883-41.214 29.083-65.685l2.06-12-.556-15.5-.555-15.5-2.513-10.761c-12.616-54.036-54.382-94.612-108.924-105.82-11.441-2.351-33.128-3.31-43.919-1.941Zm-1.984 24.573c-23.719 3.693-45.424 14.942-63.406 32.86-22.048 21.97-33.611 49.795-33.696 81.089-.038 13.853 1.411 23.465 5.374 35.639 13.363 41.055 46.91 70.507 89.943 78.965 9.737 1.914 32.755 1.626 43-.538 35.316-7.458 65.519-30.581 81.412-62.329C355.578 280.923 360 261.37 360 244c0-71.466-63.347-125.484-134.215-114.449ZM.32 256c0 3.575.182 5.038.403 3.25.222-1.788.222-4.713 0-6.5-.22-1.787-.403-.325-.403 3.25Z"/></g><defs><clipPath id="sa"><path fill="#fff" d="M0 0h512v512H0z"/></clipPath></defs></svg><svg fill="none" viewBox="0 0 512 512" id="telegram" xmlns="http://www.w3.org/2000/svg"><g clip-path="url(#ta)"><path d="M0 120C0 53.726 53.726 0 120 0h272c66.274 0 120 53.726 120 120v272c0 66.274-53.726 120-120 120H120C53.726 512 0 458.274 0 392V120Z" fill="#fff"/><path d="M16 128.5C16 66.368 66.368 16 128.5 16h255C445.632 16 496 66.368 496 128.5v255c0 62.132-50.368 112.5-112.5 112.5h-255C66.368 496 16 445.632 16 383.5v-255Z" fill="#6D1F25"/><g clip-path="url(#tb)"><path d="m388 116.667-298.833 115.5C69 239.5 69 252.333 85.5 256l75.167 23.833 29.333 88c3.667 9.167 1.833 12.834 11 12.834 7.333 0 11-3.667 14.667-7.334l36.666-36.666 77 56.833c14.667 7.333 23.834 3.667 27.5-12.833L408.167 140.5c5.5-20.167-7.334-31.167-20.167-23.833Zm-38.5 55-143 130.166-5.5 60.5-29.333-88L340.333 168c7.334-5.5 14.667-1.833 9.167 3.667Z" fill="#fff"/></g></g><defs><clipPath id="ta"><path fill="#fff" d="M0 0h512v512H0z"/></clipPath><clipPath id="tb"><path fill="#fff" transform="translate(36 36)" d="M0 0h440v440H0z"/></clipPath></defs></svg><svg viewBox="0 0 500 500" id="time" xmlns="http://www.w3.org/2000/svg"><g clip-path="url(#ua)"><path fill-rule="evenodd" clip-rule="evenodd" d="M218.789 4.395c-11.564 5.91-15.25 11.572-21.351 32.816l-5.174 18.014-13.614 5.255c-7.486 2.893-16.279 6.65-19.541 8.356l-5.929 3.098-16.973-9.825-16.971-9.826h-9.474c-12.803 0-18.192 3.264-36.791 22.283-18.684 19.104-20.688 22.506-20.688 35.149v9.521l9.822 16.965 9.82 16.965-3.964 7.772c-2.182 4.273-5.951 13.097-8.38 19.609l-4.415 11.836-8.541 2.51a4991.64 4991.64 0 0 1-18.564 5.398c-12.768 3.68-19.8 9.246-24.358 19.281l-3.617 7.967v44.922l3.617 7.967c4.881 10.742 11.754 15.691 28.29 20.361 7.648 2.16 15.982 4.58 18.52 5.379l4.616 1.449 4.434 11.836c2.439 6.512 6.216 15.336 8.398 19.609l3.965 7.772-9.82 16.965-9.823 16.965v9.474c0 12.803 3.264 18.192 22.283 36.791 19.14 18.719 22.069 20.438 35.002 20.537l9.795.077 16.908-9.789 16.909-9.788 5.929 3.098c3.262 1.705 12.055 5.463 19.541 8.356l13.614 5.255 5.174 18.014c6.101 21.244 9.787 26.906 21.351 32.816l8.602 4.395h45.218l8.602-4.395c11.56-5.908 15.25-11.572 21.338-32.769l5.16-17.967 11.791-4.433c6.484-2.438 15.289-6.215 19.562-8.397l7.772-3.965 16.965 9.821 16.965 9.822h9.521c12.643 0 16.045-2.004 35.149-20.688 19.019-18.599 22.283-23.988 22.283-36.791v-9.474l-9.822-16.965-9.821-16.965 3.965-7.772c2.182-4.273 5.959-13.078 8.397-19.562l4.433-11.791 17.967-5.16c21.42-6.153 26.695-9.672 33.588-22.41l5.211-9.631.16-23.276c.086-12.8-.391-22.724-1.063-22.052-.671.67-3.087-2.428-5.371-6.885-5.658-11.051-11.529-14.813-32.525-20.844l-17.967-5.16-4.433-11.791c-2.438-6.484-6.215-15.289-8.397-19.562l-3.965-7.772 9.821-16.965 9.822-16.965v-9.474c0-12.803-3.264-18.192-22.283-36.791-19.104-18.684-22.506-20.688-35.149-20.688h-9.521l-16.965 9.822-16.965 9.82-7.772-3.964c-4.273-2.182-13.078-5.959-19.562-8.396l-11.791-4.434-5.16-17.967c-6.088-21.197-9.778-26.861-21.338-32.77L272.609 0h-45.218l-8.602 4.395Zm5.967 107.103c-13.854 2.719-27.475 7.615-42.139 15.145l-13.672 7.021-17.64 17.641-17.641 17.64-7.068 13.672c-10.264 19.85-15.412 38.283-16.658 59.643l-1.084 18.627 3.296 16.529c2.055 10.309 6.659 23.488 12.231 35.022l8.933 18.492 17.815 17.703 17.816 17.703 13.672 7.082c7.52 3.894 20.264 9.141 28.321 11.656l14.648 4.574h48.828l14.648-4.574c8.057-2.515 20.801-7.762 28.321-11.656l13.672-7.082 17.64-17.641 17.641-17.64 7.082-13.672c3.894-7.52 9.141-20.264 11.656-28.321l4.574-14.648v-48.828l-4.574-14.648c-2.515-8.057-7.762-20.801-11.656-28.321l-7.082-13.672-17.703-17.816-17.703-17.815-18.492-8.921c-27.917-13.471-60.401-18.247-87.682-12.895Zm2.215 31.977c-63.09 14.365-99.934 78.261-80.655 139.869 10.102 32.277 38.549 60.453 71.375 70.689l13.754 4.289h37.11l13.754-4.289c33.632-10.488 61.236-38.092 71.724-71.724l4.289-13.754v-37.11l-4.289-13.754c-10.242-32.843-38.476-61.339-70.689-71.345-16.869-5.239-40.656-6.451-56.373-2.871Zm12.199 33.195-4.795 4.793v75.168l20.121 20.123 20.123 20.121h6.334c8.412 0 15.922-7.439 15.922-15.775v-6.186l-15.625-16.008-15.625-16.01v-61.433l-4.795-4.793c-3.021-3.024-7.025-4.795-10.83-4.795-3.805 0-7.809 1.771-10.83 4.795ZM.752 250c0 13.428.312 18.922.693 12.207.383-6.713.383-17.699 0-24.414-.38-6.713-.693-1.221-.693 12.207Z"/></g><defs><clipPath id="ua"><path fill="#fff" d="M0 0h500v500H0z"/></clipPath></defs></svg><svg viewBox="0 0 512 512" id="user" xmlns="http://www.w3.org/2000/svg"><path fill-rule="evenodd" clip-rule="evenodd" d="M240.955 49.028c-51.078 7.164-90.735 48.507-96.199 100.291l-1.142 10.819 1.21 10.877c5.147 46.287 36.511 83.862 80.497 96.439 39.118 11.185 79.028.428 108.813-29.329 15.618-15.603 24.976-31.822 30.612-53.051l2.542-9.574v-32l-2.603-9.813c-4.735-17.857-11.276-30.808-22.726-44.999-14.484-17.952-35.613-31.154-59.646-37.268l-9.813-2.496-12.5-.407c-6.875-.224-15.445.006-19.045.51Zm-91.192 220.279c-20.604 12.822-41.525 30.934-54.997 47.614-28.137 34.834-44.011 76.502-46.319 121.579l-.614 12 2.333 4.5 2.334 4.5 4.462 2.25 4.462 2.25h389.152l4.462-2.25 4.462-2.25 2.332-4.5 2.331-4.5-.634-12.317c-2.116-41.141-15.289-78.371-40.086-113.292-7.365-10.373-31.159-34.512-42.13-42.743-4.503-3.378-12.281-8.636-17.285-11.685l-9.099-5.543-7.214 5.93c-18.656 15.334-39.03 25.144-63.027 30.346l-10.188 2.208h-37l-10.188-2.208c-23.973-5.197-44.372-15.013-62.978-30.306-3.942-3.239-7.317-5.864-7.5-5.833-.184.032-3.366 1.944-7.071 4.25Z"/></svg><svg viewBox="0 0 512 512" id="user2" xmlns="http://www.w3.org/2000/svg"><path fill-rule="evenodd" clip-rule="evenodd" d="M194 28.428c-39.281 8.262-69.464 37.32-79.216 76.265l-2.205 8.807v29l2.205 8.807c4.885 19.508 14.195 35.655 28.387 49.236 13.476 12.895 27.894 21.102 44.829 25.518l8.5 2.217 13.5.457 13.5.458 9.5-1.976c20.284-4.219 36.916-13.063 51.093-27.168 17.661-17.572 27.046-37.02 29.96-62.091l1.158-9.958-1.158-9.958c-2.882-24.795-12.266-44.413-29.474-61.621-13.026-13.027-25.722-20.496-44.179-25.994l-8.9-2.65-15.5-.358c-10.555-.244-17.574.078-22 1.009Zm1.802 233.609c-50.017 4.167-99.598 28.307-129.855 63.223C39.713 355.534 27 389.104 27 428.103v14.905l126.249-.254 126.25-.254 2.631-11.5 2.631-11.5-4.175-4.5a5709.78 5709.78 0 0 0-11.926-12.786c-9.433-10.085-13.123-15.744-15.696-24.069-6.969-22.552 4.147-47.795 25.416-57.715 2.684-1.251 13.672-4.448 24.417-7.103l19.537-4.827 3.333-5.202c1.833-2.861 3.333-5.432 3.333-5.713 0-1.064-12.341-8.829-21.555-13.563-33.588-17.256-73.667-25.149-111.643-21.985Zm180.564 22.882c-4.296 2.619-6.283 5.527-19.867 29.081-6.502 11.275-12.15 20.878-12.55 21.34-.401.462-11.984 3.66-25.741 7.108-14.158 3.548-26.528 7.204-28.504 8.426-6.358 3.93-8.783 14.22-4.859 20.626 1.011 1.65 9.245 11.006 18.297 20.791l16.46 17.791-6.365 28.209-6.365 28.209.405 4.622c.726 8.281 6.991 13.878 15.536 13.878h4.011l28.592-11.965 28.592-11.965 28.617 11.965L441.242 485h3.978c8.512 0 14.779-5.61 15.503-13.878l.405-4.622-6.364-28.204-6.363-28.203 16.9-18.297c9.295-10.063 17.579-19.607 18.41-21.21 2.126-4.103 1.301-12.298-1.64-16.275-3.144-4.254-6.443-5.498-30.071-11.342-11.275-2.788-22.12-5.496-24.1-6.017l-3.599-.948-12.305-21.252c-6.768-11.689-13.412-22.753-14.766-24.587-3.513-4.76-7.945-7.158-13.23-7.158-2.67 0-5.774.778-7.634 1.912Z"/></svg><svg fill="none" viewBox="0 0 512 512" id="viber" xmlns="http://www.w3.org/2000/svg"><g clip-path="url(#xa)"><path d="M1 120C1 53.726 54.726 0 121 0h272c66.274 0 120 53.726 120 120v272c0 66.274-53.726 120-120 120H121C54.726 512 1 458.274 1 392V120Z" fill="#fff"/><path d="M1 120C1 53.726 54.726 0 121 0h272c66.274 0 120 53.726 120 120v272c0 66.274-53.726 120-120 120H121C54.726 512 1 458.274 1 392V120Z" fill="#fff"/><path fill-rule="evenodd" clip-rule="evenodd" d="M203.393 16.873c-33.437 1.256-71.614 3.989-98.432 7.044-15.157 1.728-26.45 5.143-37.585 11.37l-7.973 4.46-9.862 9.859-9.862 9.86-4.46 7.971C26.27 83.431 24.284 93.386 20.53 141.056c-7.027 89.235-5.848 183.821 3.314 265.87l1.413 12.66 3.082 9.057c1.694 4.982 4.944 12.363 7.223 16.403l4.141 7.346 9.85 9.864 9.85 9.864 7.355 4.132c4.046 2.274 11.433 5.52 16.416 7.213l9.06 3.081 12.663 1.424c42.726 4.805 103.39 8.03 151.025 8.03 47.635 0 108.299-3.225 151.025-8.03l12.663-1.424 9.06-3.081c4.983-1.693 12.37-4.942 16.416-7.219l7.356-4.14 9.85-9.848 9.852-9.848 4.14-7.355c2.278-4.045 5.527-11.43 7.221-16.412l3.082-9.057 1.413-12.66c3.304-29.586 5.956-67.641 6.815-97.805.335-11.755.964-21.592 1.397-21.859.432-.269.787-14.836.787-32.373 0-21.018-.32-31.687-.938-31.306-.605.374-.938-3.255-.938-10.209 0-21.618-3.765-79.16-7.095-108.424l-1.441-12.66-3.082-9.058c-1.694-4.981-4.943-12.367-7.221-16.412l-4.14-7.354-9.852-9.848-9.85-9.849-7.401-4.165c-8.427-4.742-19.395-8.856-27.442-10.292-8.065-1.439-40.806-4.512-65.528-6.15-47.653-3.158-102.928-4.008-148.679-2.29Zm27.203 95.195c-1.806.205-7.927.823-13.602 1.37-18.143 1.753-36.008 5.209-43.619 8.439-21.964 9.321-44.831 31.891-53.135 52.445-2.659 6.58-5.211 18.645-7.447 35.194l-1.648 12.192-.001 21.569c-.003 22.155 1.056 33.635 5 54.211l1.833 9.561 4.66 9.378c10.392 20.917 32.457 41.379 52.284 48.488l5.959 2.137v16.593c0 9.478.428 17.726 1 19.234 2.283 6.024 8.42 9.462 14.773 8.276l3.456-.644 17.354-17.814 17.354-17.813 24.389-.298c31.545-.385 61.332-3.878 75.92-8.901 22.078-7.603 46.916-30.92 56.026-52.599 7.221-17.182 11.536-58.115 9.283-88.065-1.426-18.954-5.187-41.015-8.414-49.344-8.145-21.025-31.909-44.924-53.531-53.839-7.486-3.086-20.469-5.798-38.479-8.038-11.062-1.377-61.495-2.635-69.415-1.732Zm-6.097 26.694c-13.296 1.337-33.875 4.593-37.816 5.983-14.194 5.007-28.962 17.297-37.844 31.497-4.297 6.869-5.309 9.369-6.975 17.231-6.204 29.275-6.52 63.736-.868 94.544l2.186 11.915 3.605 6.841 3.606 6.84 9.381 9.378c9.391 9.39 15.73 13.865 25.043 17.683 2.736 1.121 5.502 2.373 6.147 2.783l1.172.746v54.341l1.35.518c.743.285 1.925.166 2.626-.263.702-.431 11.981-11.755 25.065-25.166l23.788-24.383 17.597-.612c31.232-1.087 57.594-4.717 67.366-9.277 16.191-7.555 33.337-25.247 38.231-39.446 1.916-5.562 4.715-22.747 6.017-36.944 1.883-20.527.149-49.002-4.247-69.753-2.768-13.067-11.667-26.302-24.791-36.871-12.531-10.093-19.702-12.629-46.065-16.294-12.715-1.767-61.449-2.611-74.574-1.291Zm26.331 31.433c-3.838 3.838-.14 6.519 10.252 7.436 18.295 1.612 34.018 10.095 45.001 24.281 8.113 10.479 11.917 21.169 13.218 37.145.357 4.384 1.046 8.735 1.53 9.669 1.091 2.101 5.292 1.807 6.717-.469l.993-1.585-1.149-10.325c-.631-5.679-2.033-13.195-3.116-16.702-6.522-21.138-21.688-37.674-42.121-45.925-11.721-4.733-28.254-6.594-31.325-3.525Zm-54.594 10.566c-9.537 6.163-15.702 14.914-15.632 22.19.041 4.367 8.032 23.418 15.313 36.508 14.263 25.643 34.171 46.516 59.027 61.887 15.885 9.824 36.822 19.319 42.512 19.28 7.602-.051 19.357-9.542 23.777-19.196l2.374-5.183-.612-2.787c-.743-3.381-6.057-8.227-18.763-17.11-16.17-11.304-18.236-11.457-27.371-2.018l-5.796 5.989h-4.103c-9.174 0-26.604-11.318-35.167-22.835-5.643-7.59-11.518-20.083-11.518-24.495v-3.445l5.984-5.795c6.492-6.288 7.636-8.535 6.747-13.266-.761-4.063-12.67-22.016-18.796-28.339l-4.828-4.984h-7.577l-5.571 3.599Zm60.635 8.111c-1.697 2.044-.401 6.002 2.115 6.464 1.153.212 4.84.881 8.194 1.485 8.629 1.556 15.132 4.786 21.21 10.533 7.763 7.34 12.559 18.376 12.559 28.899 0 2.368.507 4.811 1.126 5.43 1.447 1.447 4.743 1.447 6.191 0 2.692-2.691.547-16.79-4.081-26.822l-3.158-6.847-5.902-5.884c-3.694-3.684-8.182-6.99-11.999-8.841-10.901-5.287-23.74-7.447-26.255-4.417Zm6.564 18.963c-2.171 1.52-2.46 4.256-.611 5.79.7.58 3.282 1.431 5.739 1.889 7.727 1.444 12.098 5.96 13.619 14.072 1.051 5.607 2.261 7.596 4.623 7.596 3.976 0 4.931-5.337 2.446-13.662-2.621-8.781-9.728-14.759-19.357-16.281l-4.576-.723-1.883 1.319ZM16.206 255.938c0 17.795.126 25.075.28 16.177.154-8.898.154-23.456 0-32.354s-.28-1.618-.28 16.177Z" fill="#6D1F25"/></g><defs><clipPath id="xa"><path fill="#fff" d="M0 0h512v512H0z"/></clipPath></defs></svg><svg fill="none" viewBox="0 0 512 512" id="whatsapp" xmlns="http://www.w3.org/2000/svg"><g clip-path="url(#ya)"><path d="M0 120C0 53.726 53.726 0 120 0h272c66.274 0 120 53.726 120 120v272c0 66.274-53.726 120-120 120H120C53.726 512 0 458.274 0 392V120Z" fill="#fff"/><path fill-rule="evenodd" clip-rule="evenodd" d="M122.328 16.6C81.224 21.464 46.125 45.84 27.737 82.3c-5.043 9.998-9.53 23.253-11.446 33.81l-1.278 7.043v267.662l1.749 7.945c5.302 24.102 15.95 44.225 32.108 60.678 17.84 18.167 39.214 29.62 65.108 34.886l8.248 1.677H388.377l8.464-1.705c44.551-8.97 78.837-38.995 93.017-81.457 1.803-5.398 3.767-13.619 4.365-18.268.597-4.648 1.466-9.186 1.932-10.082 1.188-2.293 1.093-258.946-.095-257.109l-.912 1.408-.015-3.609c-.025-6.459-3.821-22.47-7.639-32.224-15.09-38.55-48.957-66.643-90.653-75.198l-7.524-1.544-130.254-.189c-71.64-.104-133.17.156-136.735.578Zm120.747 90.169c-57.623 6.263-105.905 44.085-124.545 97.562-1.849 5.303-4.295 13.931-5.438 19.173l-2.076 9.53v38.506l2.076 9.531c2.781 12.76 7.836 27.02 13.468 37.991l4.63 9.017-13.145 38.368c-7.23 21.104-12.944 38.571-12.698 38.817.247.246 18.534-5.308 40.639-12.343l40.191-12.789 7.524 3.676c22.087 10.79 49.431 15.933 74.579 14.026 66.793-5.063 119.925-51.486 134.333-117.372l1.746-7.983.003-20.192.002-20.192-2.185-9.749c-13.343-59.509-60.114-104.126-119.604-114.095-11.469-1.922-29.299-2.591-39.5-1.482ZM15 256.044c0 71.024.112 100.08.248 64.567.137-35.511.137-93.622 0-129.135-.136-35.511-.248-6.456-.248 64.568Zm233.248-126.221c-31.766 3.183-58.845 16.082-80.028 38.123-16.053 16.702-26.527 36.667-31.568 60.173l-2.061 9.611.02 14.557.02 14.557 2.041 9.612c3.359 15.812 9.576 30.848 17.579 42.512l3.545 5.165-7.645 22.492c-4.205 12.37-7.523 22.613-7.373 22.763.148.149 10.774-3.077 23.61-7.168l23.339-7.44 7.159 4.125c29.486 16.985 68.014 20.513 101.524 9.296 30.076-10.067 56.642-33.307 71.085-62.183 8.379-16.753 12.202-33.422 12.21-53.261.012-26.047-6.21-46.569-20.715-68.328-18.105-27.16-48.886-47.246-80.959-52.832-8.334-1.451-25.463-2.407-31.783-1.774Zm-45.142 57.039c-4.29 1.958-10.632 9.422-13.952 16.42l-2.977 6.273v19.723l2.712 7.359c2.915 7.913 12.613 23.184 21.974 34.599 12.585 15.348 29.128 29.201 43.498 36.423 8.647 4.347 26.16 10.529 35.989 12.705l7.306 1.618 6.53-1.473c8.423-1.9 15.113-5.326 20.836-10.673l4.58-4.279 1.409-4.735c.774-2.604 1.408-7 1.408-9.769v-5.033l-15.93-7.824c-8.763-4.303-17.092-8.046-18.51-8.316l-2.578-.492-2.416 2.524c-1.329 1.388-4.875 5.57-7.88 9.294l-5.463 6.769h-2.557c-5.45 0-21.593-9.081-32.338-18.192-7.393-6.268-21.421-24.382-21.421-27.658 0-1.252 1.788-4.325 4.111-7.063 4.486-5.286 7.174-9.955 7.174-12.459 0-2.114-12.207-31.68-14.069-34.075l-1.449-1.862-6.583-.546c-4.601-.381-7.432-.157-9.404.742Z" fill="#6D1F25"/></g><defs><clipPath id="ya"><path fill="#fff" d="M0 0h512v512H0z"/></clipPath></defs></svg></svg>