<?xml version="1.0" encoding="utf-8"?><svg viewBox="0 0 512 512" xmlns="http://www.w3.org/2000/svg" xmlns:xlink="http://www.w3.org/1999/xlink"><style>:root>svg{display:none}:root>svg:target{display:block}</style><svg viewBox="0 0 512 512" id="arrow" xmlns="http://www.w3.org/2000/svg"><path fill-rule="evenodd" clip-rule="evenodd" d="m247.502 97.998-29.991 30.004 42.49 42.499L302.491 213H64v86H302.491l-42.492 42.501-42.493 42.501 29.999 29.999L277.504 444l93.997-94.001 93.996-94-94.002-94.002-94.002-94.003-29.991 30.004Z"/></svg><svg viewBox="0 0 512 512" id="arrow2" xmlns="http://www.w3.org/2000/svg"><path fill-rule="evenodd" clip-rule="evenodd" d="M61 117.035c-19.52 3.467-34.252 18.456-37.264 37.915l-1.115 7.206 1.125 6.57c.62 3.614 2.561 9.541 4.317 13.172l3.191 6.602 97.123 97.297c54.251 54.349 99.505 98.888 102.519 100.9 15.34 10.244 37.232 9.781 51.759-1.095 3.215-2.407 49.082-47.74 101.927-100.739l96.083-96.363 2.782-6.379c1.529-3.509 3.256-9.448 3.837-13.198l1.055-6.818-1.28-7.16c-5.204-29.121-37.463-45.681-64.009-32.859l-6.55 3.164-80.25 80.11L256 285.471l-81.25-81.07-81.25-81.07-6-2.606c-5.422-2.355-16.677-4.88-20.5-4.6-.825.061-3.525.47-6 .91Z"/></svg><svg viewBox="0 0 512 512" id="arrow3" xmlns="http://www.w3.org/2000/svg"><path fill-rule="evenodd" clip-rule="evenodd" d="M61 117.035c-19.52 3.467-34.252 18.456-37.264 37.915l-1.115 7.206 1.125 6.57c.62 3.614 2.561 9.541 4.317 13.172l3.191 6.602 97.123 97.297c54.251 54.349 99.505 98.888 102.519 100.9 15.34 10.244 37.232 9.781 51.759-1.095 3.215-2.407 49.082-47.74 101.927-100.739l96.083-96.363 2.782-6.379c1.529-3.509 3.256-9.448 3.837-13.198l1.055-6.818-1.28-7.16c-5.204-29.121-37.463-45.681-64.009-32.859l-6.55 3.164-80.25 80.11L256 285.471l-81.25-81.07-81.25-81.07-6-2.606c-5.422-2.355-16.677-4.88-20.5-4.6-.825.061-3.525.47-6 .91Z"/></svg><svg viewBox="0 0 500 500" id="arrow4" xmlns="http://www.w3.org/2000/svg"><path d="M345.583 0 375 29.417 169.146 235.27a20.832 20.832 0 0 0 0 29.458l205.5 205.459-29.459 29.458-205.458-205.458a62.501 62.501 0 0 1 0-88.375L345.583 0Z"/></svg><svg viewBox="0 0 500 500" id="call" xmlns="http://www.w3.org/2000/svg"><g clip-path="url(#ea)"><path fill-rule="evenodd" clip-rule="evenodd" d="M72.914 3.496c-12.67 4.53-20.967 10.834-34.611 26.299C1.85 71.113-3.92 85.973 2.086 123.047c6.422 39.633 37.303 98.539 79.867 152.344 20.818 26.318 116.002 121.488 142.406 142.388 26.018 20.594 48.93 35.946 73.828 49.467 39.557 21.481 64.641 30.133 93.215 32.149l4.451.314a64.646 64.646 0 0 0 22.594-2.41c20.545-5.973 65.6-43.951 75.106-63.309a53.418 53.418 0 0 0 5.47-23.548v-2.385c0-9.73-2.273-19.326-6.638-28.021l-1.621-3.229c-15.366-30.604-43.471-58.799-74.118-74.354l-4.09-2.076a55.27 55.27 0 0 0-25.206-5.982c-16.543.056-31.229 5.064-49.915 17.019l-6.231 3.987a31.155 31.155 0 0 1-16.79 4.911c-5.736 0-12.129-1.628-17.252-4.394-21.701-11.715-78.926-66.42-103.252-98.703-17.662-23.44-18.475-33.264-4.59-55.41 11.426-18.221 16.365-33.088 16.34-49.168a55.957 55.957 0 0 0-6.059-25.235l-2.062-4.062C182.156 53.03 154.256 25.11 123.85 9.61l-4.619-2.355A61.129 61.129 0 0 0 95.529.72L93.703.599a51.605 51.605 0 0 0-20.789 2.897Z"/></g><defs><clipPath id="ea"><path fill="#fff" d="M0 0h500v500H0z"/></clipPath></defs></svg><svg viewBox="0 0 512 512" id="cart" xmlns="http://www.w3.org/2000/svg"><path fill-rule="evenodd" clip-rule="evenodd" d="M67.852 27.391C57.997 30.912 51.648 40.144 51.61 51.01l-.023 6.51 2.274 4.696c2.549 5.265 7.71 10.248 13.065 12.613l3.573 1.578 18.94.547 18.94.547 21.347 85.396 21.348 85.396-14.883 15.104-14.883 15.104-3.049 6.5c-7.144 15.227-7.012 29.188.427 44.858 6.189 13.04 18.16 22.887 32.444 26.689l5.369 1.429 115.884.012 115.884.012 3.925-1.176c5.229-1.567 12.126-7.786 14.831-13.373l2.191-4.526-.369-7.31-.369-7.31-3.025-4.902c-3.401-5.514-11.044-10.743-17.184-11.758-2.072-.343-53.262-.628-113.754-.634L164.529 307l12.971-13 12.971-13 87.015-.01 87.014-.01 5.041-2.347c2.772-1.291 6.31-3.855 7.861-5.699 1.551-1.843 20.841-39.412 42.866-83.486l40.045-80.135.044-5.906c.024-3.249-.551-7.653-1.277-9.788-1.672-4.91-7.248-11.124-12.512-13.94L442.5 77.5 301.581 77l-140.92-.5-4.581-18.079-4.581-18.078-2.779-3.643c-3.425-4.49-8.137-8.06-12.619-9.562-2.259-.756-13.669-1.123-34-1.094l-30.601.044-3.648 1.303Zm89.766 357.658c-6.163 1.547-15.339 6.9-19.248 11.227-1.977 2.187-5.004 6.958-6.727 10.601l-3.133 6.623v18l3.077 6.503c11.334 23.955 41.26 30.068 60.409 12.34 6.775-6.272 10.532-13.098 12.096-21.972l1.067-6.06-1.088-5.905c-2.363-12.82-10.237-23.249-21.553-28.544l-6.431-3.01-7.293-.389c-4.012-.214-9.041.05-11.176.586Zm204.382.325c-7.471 2.057-12.241 4.798-17.561 10.09-6.715 6.68-10.455 14.715-11.154 23.956l-.543 7.179 1.71 5.951c5.459 18.991 24.777 31.211 43.325 27.407 12.4-2.543 21.92-9.737 27.889-21.074l2.834-5.383v-22l-2.816-5.5c-8.462-16.527-26.918-25.242-43.684-20.626Z"/></svg><svg viewBox="0 0 512 512" id="catalog" xmlns="http://www.w3.org/2000/svg"><path fill-rule="evenodd" clip-rule="evenodd" d="M285.056 33.09c-7.01 1.375-18.117 7.226-23.335 12.292-6.242 6.06-10.33 12.622-12.757 20.473L247 72.211l.012 76.144.012 76.145 1.366 5.132c4.373 16.424 16.807 28.881 33.741 33.804l5.545 1.612 77.912-.274 77.912-.274 5.743-2.319c12.443-5.025 22.479-15.421 27.941-28.945l2.316-5.736.29-75.5.291-75.5-1.581-7.126c-3.752-16.909-17.525-31.131-34.419-35.541l-6.581-1.718-74 .052c-40.7.029-76 .444-78.444.923ZM72 77.011c-19.068 3.29-34.91 18.681-38.895 37.788-1.44 6.908-1.519 103.733-.09 111.315 3.233 17.152 16.26 31.797 32.84 36.922L72.211 265h108.426l5.431-1.612c8.738-2.592 14.942-6.233 20.882-12.254 6.406-6.493 10.337-13.298 12.517-21.669L221 223.58V118.42l-1.531-5.878c-4.749-18.234-19.53-32.049-37.927-35.45C174.73 75.833 79.24 75.763 72 77.011Zm-4 215.412c-8.045 2.295-14.204 5.837-20.667 11.882l-6.34 5.931-3.498 7.132c-1.924 3.923-3.947 9.556-4.496 12.518-.58 3.132-.999 26.495-.999 55.803v50.416l1.56 6.854c3.79 16.668 17.618 30.838 34.36 35.208l6.58 1.718 51.114.057c30.042.034 53.334-.354 56.5-.941 2.962-.549 8.595-2.572 12.518-4.496l7.132-3.497 5.916-6.325c6.473-6.92 10.419-14.221 12.267-22.698l1.196-5.485-.322-54.5-.321-54.5-2.312-5.725c-5.007-12.395-15.593-22.956-28.069-28.002L184.5 291.5l-56-.181-56-.18-4.5 1.284Zm214.105.16c-16.115 4.333-28.562 16.726-33.493 33.349L247 331.363v108.426l1.964 6.356c5.021 16.245 18.189 28.321 35.276 32.349l6.26 1.476 50.701.015c33.208.01 52.529-.366 56-1.09 16.422-3.425 29.908-15.257 36.069-31.646l2.16-5.749.344-52c.235-35.62-.012-54.048-.786-58.5-3.258-18.752-18.731-35.11-36.787-38.89-3.52-.737-22.996-1.088-58-1.044l-52.701.066-5.395 1.451Z"/></svg><svg viewBox="0 0 512 512" id="drop" xmlns="http://www.w3.org/2000/svg"><path fill-rule="evenodd" clip-rule="evenodd" d="M128.25 255.75 256 383.499 383.75 255.75 511.499 128H.501L128.25 255.75Z"/></svg><svg viewBox="0 0 512 512" id="edit" xmlns="http://www.w3.org/2000/svg"><g clip-path="url(#ia)"><path fill-rule="evenodd" clip-rule="evenodd" d="M425.468 2.05c-18.158 4.582-23.944 9.826-150.752 136.65L148.43 265l-19.214 58C118.646 354.9 110 383.096 110 385.654c0 6.01 10.336 16.346 16.346 16.346 2.558 0 30.754-8.646 62.654-19.216l58-19.214 126.3-126.286c127.052-127.036 113.002-113.569 125.502-129.569l5-9.5 3.5-9c6-20 6.208-30.187-2.176-48.503-6.19-13.52-20.45-27.708-34.152-33.982-12.164-5.568-33.346-7.746-45.506-4.68ZM44.652 38.088c-16.756 3.314-30.296 13.394-37.75 28.106L2 75.868v396.87l4.168 8.608c5.754 11.888 20.164 24.058 32.852 27.746l10.37 3.014 174.804-.552L399 511l10.878-6c11.138-6.142 21.07-17.698 25.47-29.632l2.348-6.368.152-101.322.152-101.322-6.154-5.178c-9.52-8.012-21.262-5.976-26.75 4.636L402 271.802v191.974l-4.826 5.612-4.826 5.612-169.674.534L53 476.068l-5.594-2.316c-3.078-1.274-6.902-4.844-8.5-7.934L36 460.198V86.064l5.834-6.532L47.668 73l118.344-1 118.344-1 3.822-4.722c7.568-9.35 4.024-22.726-7.274-27.448L274.128 36l-110.564.22c-60.81.12-114.32.96-118.912 1.868Z"/></g><defs><clipPath id="ia"><path fill="#fff" d="M0 0h512v512H0z"/></clipPath></defs></svg><svg viewBox="0 0 512 512" id="email" xmlns="http://www.w3.org/2000/svg"><g clip-path="url(#ja)"><path fill-rule="evenodd" clip-rule="evenodd" d="M34.65 56.049C9.68 60.239-6.679 94.384 2.922 122.275c5.527 16.058 21.709 37.339 38.514 50.653 3.335 2.642 36.439 25.942 73.564 51.778 37.125 25.836 73.8 51.451 81.5 56.922 26.066 18.52 39.225 25.693 51.613 28.134l7.887 1.553 7.887-1.553c12.37-2.437 25.489-9.584 51.581-28.098 7.683-5.452 44.133-30.85 81-56.44 36.868-25.591 69.957-48.871 73.532-51.734 21.275-17.04 37.061-40.129 40.33-58.99.939-5.419 1.549-7.193 1.892-5.5.305 1.507.559.515.641-2.5.195-7.207-2.464-19.058-5.834-26-3.397-6.998-12.12-16.143-18.934-19.852-2.61-1.42-7.393-3.272-10.63-4.115L471.58 55l-216.04.118c-118.822.064-218.222.483-220.89.931ZM.32 106c0 3.575.182 5.037.403 3.25.222-1.787.222-4.713 0-6.5-.221-1.787-.403-.325-.403 3.25ZM0 299.69c0 74.065.364 116.954 1.021 120.419 1.623 8.562 6.052 16.784 12.506 23.219 6.463 6.443 12.519 9.928 21.166 12.18L40.42 457h431.16l5.727-1.492c8.647-2.252 14.703-5.737 21.166-12.18 6.288-6.27 11.334-15.474 12.257-22.355.297-2.212.929-4.262 1.405-4.556.479-.296.865-52.38.865-116.619V183.715l-8.75 8.43c-10.895 10.497-10.123 9.933-65.75 48.049-25.3 17.336-64.225 44.402-86.5 60.147l-40.5 28.628-12 5.909c-6.6 3.251-15.825 7.178-20.5 8.728l-8.5 2.819h-29l-8.5-2.819c-4.675-1.55-13.9-5.477-20.5-8.727l-12-5.91-38-26.929c-20.9-14.811-59.15-41.439-85-59.172-57.326-39.328-60.045-41.304-69.75-50.707L0 184.653V299.69ZM.484 301c0 64.075.119 90.288.266 58.25.146-32.037.146-84.462 0-116.5C.603 210.713.484 236.925.484 301Z"/></g><defs><clipPath id="ja"><path fill="#fff" d="M0 0h512v512H0z"/></clipPath></defs></svg><svg viewBox="0 0 512 512" id="eye" xmlns="http://www.w3.org/2000/svg"><g clip-path="url(#ka)"><path fill-rule="evenodd" clip-rule="evenodd" d="M227 105.352c-56.348 7.072-110.954 31.322-157.148 69.79-17.562 14.626-46.888 44.896-59.806 61.734L1.09 248.548v14.904l8.89 11.774c14.494 19.202 59.588 62.754 80.02 77.29 47.23 33.596 101.198 52.596 156 54.922l25 1.06 22.774-3.358c44.2-6.518 89.172-25.038 128.05-52.73C461.192 324.368 514 267.312 514 252.822c0-1.682-.9-2.502-2-1.822-1.1.68-2-.012-2-1.538 0-4.484-29.704-38.976-50.386-58.51-60.538-57.17-133.078-87.704-205.87-86.652-11.41.164-23.444.638-26.744 1.052Zm3 45.806c-18.818 4.952-36.05 14.892-50 28.842-60.1 60.1-31.416 159.772 52.144 181.196L245 364.492l17-1.08c22.058-1.404 38.61-7.3 56.546-20.142 17.138-12.274 32.88-32.924 39.412-51.7 2.468-7.096 4.844-19.974 5.454-29.57l1.08-17-3.272-13c-14.876-59.094-74.432-95.786-131.22-80.842Zm11 49.52c-18.766 6.216-29.84 15.804-37.33 32.322l-4.534 10 .022 13 .02 13 4.534 10.214c5.642 12.708 16.25 23.232 29.288 29.054l10 4.468 13-.022c23.47-.036 42.64-12.38 52.358-33.714l4.556-10-.094-14-.094-14-5.184-10c-12.854-24.792-42.48-38.292-66.542-30.322ZM.316 256c0 2.75.454 3.876 1.008 2.5.556-1.374.556-3.624 0-5-.554-1.374-1.008-.25-1.008 2.5Z"/></g><defs><clipPath id="ka"><path fill="#fff" d="M0 0h512v512H0z"/></clipPath></defs></svg><svg viewBox="0 0 512 512" id="facebook" xmlns="http://www.w3.org/2000/svg"><g clip-path="url(#la)"><path fill-rule="evenodd" clip-rule="evenodd" d="M112.5 1.073c-27.41 3.304-54.297 16.601-74.552 36.87C19.105 56.796 6.63 80.666 1.858 107L.5 114.5v286l2.696 11.254c12.902 53.857 57.537 93.52 111.771 99.321 6.167.66 58.26.901 147.533.683l138-.338 9-2.102c17.635-4.119 33.272-10.926 47.442-20.651 9.639-6.616 24.219-21.051 30.975-30.667 11.245-16.006 19.906-37.373 22.135-54.609.632-4.89 1.554-9.672 2.049-10.627 1.29-2.492 1.19-275.062-.101-274.264-.593.366-1-.786-1-2.831 0-5.502-2.773-18.623-5.865-27.75-6.488-19.158-17-35.95-31.569-50.43C455.774 19.806 435.389 8.73 409.5 2.681l-9-2.103L260 .404c-77.275-.096-143.65.205-147.5.67Zm153.354 96.038c-18.819 2.428-35.64 13.03-44.675 28.159-7.45 12.476-10.179 25.961-10.179 50.302V191h-28v65h31.988l.256 79.25.256 79.25 30.25.265 30.25.264V256h49l.011-1.75c.006-.963 1.126-14.125 2.489-29.25s2.483-28.963 2.489-30.75L330 191h-50.272l.474-14.757.474-14.757 1.797-3.787c.988-2.083 3.199-4.555 4.912-5.493l3.115-1.706 19.25-.326 19.25-.327V96l-28.25.126c-15.538.07-31.241.513-34.896.985ZM.486 256c0 75.625.119 106.563.264 68.75.145-37.812.145-99.687 0-137.5C.605 149.438.486 180.375.486 256Z"/></g><defs><clipPath id="la"><path fill="#fff" d="M0 0h512v512H0z"/></clipPath></defs></svg><svg viewBox="0 0 512 512" id="favorite" xmlns="http://www.w3.org/2000/svg"><path fill-rule="evenodd" clip-rule="evenodd" d="M141.5 74.116c-32.02 4.652-61.558 23.013-78.67 48.902-7.149 10.814-10.16 16.867-13.813 27.772-11.379 33.964-6.276 70.922 13.992 101.344 5.931 8.901 178.953 182.352 184.491 184.947 5.103 2.392 11.894 2.393 17 .002 2.754-1.289 31.606-29.558 92.599-90.728l88.599-88.855 4.198-6.5c30.213-46.781 24.007-106.858-14.993-145.149-17.184-16.87-39.01-27.806-62.6-31.362-29.236-4.406-59.437 2.588-83.303 19.292-3.575 2.503-12.456 10.41-19.736 17.573l-13.237 13.023-13.763-13.509c-14.672-14.4-21.02-19.217-33.764-25.614-19.975-10.028-45.471-14.266-67-11.138Z"/></svg><svg viewBox="0 0 512 512" id="home" xmlns="http://www.w3.org/2000/svg"><path fill-rule="evenodd" clip-rule="evenodd" d="M248.5 34.371c-7.249 3.408-209.63 112.493-211.361 113.925-.801.662-2.275 3.004-3.276 5.204l-1.819 4-.022 154.538L32 466.576l2.25 4.462 2.25 4.462 4.462 2.25 4.462 2.25h66.554l.261-130.927.261-130.927 2.062-2.761c1.134-1.519 3.304-3.689 4.823-4.823l2.762-2.062h267.706l2.762 2.062c1.519 1.134 3.689 3.304 4.823 4.823l2.062 2.761.261 130.927.261 130.927h66.554l4.462-2.25 4.462-2.25 2.25-4.462 2.25-4.462-.022-154.538-.022-154.538-1.899-4.184c-1.156-2.546-3.399-5.142-5.728-6.632C467.517 143.608 270.293 37.516 263.5 34.35c-6.275-2.925-8.743-2.921-15 .021ZM144 264v24h224v-48H144v24Zm0 80v24h224v-48H144v24Zm0 80v24h224v-48H144v24Z"/></svg><svg viewBox="0 0 512 512" id="instagram" xmlns="http://www.w3.org/2000/svg"><g clip-path="url(#oa)"><path fill-rule="evenodd" clip-rule="evenodd" d="M214.5.592C168.02 2.327 123.74 5.285 95 8.575c-24.844 2.844-41.482 10.279-57.84 25.844C20.341 50.422 11.522 69.124 8.592 95 3.497 139.995.028 205.157.023 256 .015 318.632 6.161 414.043 11.52 434.5c7.859 29.999 30.964 54.393 60.98 64.384 15.206 5.061 65.631 9.687 132 12.111 67.637 2.47 150.692-.475 211.5-7.5 27.293-3.153 42.879-10.276 60.049-27.446 12.605-12.605 20.258-25.62 24.431-41.549 3.7-14.124 8.892-76.17 10.192-121.79.357-12.535 1.027-23.024 1.489-23.309.461-.286.839-15.819.839-34.519 0-22.412-.341-33.789-1-33.382-.645.399-1.002-3.575-1.006-11.191-.02-34.857-6.587-117.805-10.515-132.809-7.853-29.993-30.963-54.393-60.979-64.384-12.497-4.159-50.53-8.142-106-11.101C313.429.945 231.35-.037 214.5.592Zm-40.666 96.954c-35.634 6.542-64.864 33.78-75.071 69.954l-2.257 8v161l2.264 8c3.186 11.251 11.033 26.621 18.303 35.849 11.68 14.825 31.506 27.616 50.927 32.857l8.5 2.294h159l8.5-2.256c9.272-2.461 22.296-8.315 29.759-13.376 18.725-12.698 33.055-32.837 39.502-55.514l2.233-7.854v-161l-2.215-7.784c-9.71-34.126-35.026-59.497-68.779-68.932l-8-2.236-77.5-.204-77.5-.205-7.666 1.407Zm8.547 31.429c-24.484 3.704-44.004 20.753-51.549 45.025l-2.332 7.5v149l2.332 7.5c6.456 20.769 21.069 35.807 41.537 42.744l8.131 2.756h150l7.5-2.332c20.686-6.43 35.834-21.151 42.744-41.537l2.756-8.131v-150l-2.332-7.5c-6.564-21.116-21.373-36.089-42.668-43.141l-7-2.318-72-.17c-39.6-.094-74.303.178-77.119.604Zm147.526 26.352c-2.424 1.279-5.728 4.202-7.343 6.495l-2.936 4.168-.422 5.833-.422 5.834 2.049 4.016c2.731 5.352 8.177 9.982 13.404 11.395l4.263 1.152 4.94-1.136c11.857-2.727 18.516-13.843 15.176-25.332-3.575-12.298-17.519-18.333-28.709-12.425Zm-85.592 18.681c-2.852.417-8.457 1.752-12.457 2.966-27.042 8.214-47.061 28.686-55.483 56.738l-2.638 8.788-.085 13-.084 13 1.805 7c.993 3.85 3.77 11.1 6.171 16.112 12.524 26.137 36.52 43.16 65.691 46.603l9.735 1.149 8.815-1.174c38.338-5.104 67.301-34.067 72.405-72.405l1.174-8.815-1.149-9.735c-5.532-46.869-47.947-79.946-93.9-73.227Zm-3.517 33.871c-15.86 5.216-28.174 17.672-32.92 33.298l-2.101 6.917.45 10.203.45 10.203 2.224 5.725c4.795 12.342 16.354 23.929 28.874 28.943l5.725 2.292h25l5.725-2.292c12.474-4.996 23.947-16.469 28.943-28.943l2.292-5.725v-25l-2.292-5.725c-5.012-12.514-16.583-24.062-28.943-28.883l-5.725-2.233-11-.328-11-.328-5.702 1.876ZM.45 256c0 18.975.134 26.738.298 17.25.165-9.488.165-25.012 0-34.5C.584 229.262.45 237.025.45 256Z"/></g><defs><clipPath id="oa"><path fill="#fff" d="M0 0h512v512H0z"/></clipPath></defs></svg><svg fill="none" viewBox="0 0 512 512" id="location" xmlns="http://www.w3.org/2000/svg"><path fill-rule="evenodd" clip-rule="evenodd" d="M227 2.83c-19.162 3.756-31.366 8.12-48.924 17.494-42.522 22.702-71.05 59.864-82.338 107.258a132.112 132.112 0 0 0-3.514 35.312l.288 8.106.402 11.3a105.816 105.816 0 0 0 5.034 28.7c7.522 23.344 13.844 34.17 81.77 140l62.223 96.947a21.26 21.26 0 0 0 8.651 7.663 12.49 12.49 0 0 0 10.83 0 21.246 21.246 0 0 0 8.671-7.675l64.941-101.253c69.948-109.056 76.11-120.214 82.186-148.806a123.43 123.43 0 0 0 2.615-30.074l-.351-9.802-.178-4.966A137.949 137.949 0 0 0 412.192 114c-9.124-27.104-19.76-43.962-41.01-65-23.972-23.732-44.38-35.506-76.304-44.022C278.216.532 244.204-.544 227 2.83Zm7.572 89.954c-27.754 9.058-47.046 31.236-52.41 60.25a66.133 66.133 0 0 0-.024 23.732c1.19 6.554 4.084 16.036 6.434 21.074 5.9 12.648 23.05 29.268 36.892 35.754A57.215 57.215 0 0 0 249.74 239h12.725c8.256 0 16.41-1.816 23.885-5.32 22.638-10.614 39.034-32.008 43.496-56.754l.026-.141a66.722 66.722 0 0 0-.036-23.859c-4.532-24.744-21.056-46.206-43.486-56.486a62.854 62.854 0 0 0-23.827-5.671L259 90.636c-9.782-.368-19.274.468-24.428 2.148ZM110.384 353.05c-26.402 8.778-46.142 19.196-59.496 31.402C37.632 396.566 32 407.762 32 422c0 14.238 5.632 25.434 18.888 37.548 24.858 22.72 68.05 38.084 134.112 47.708a334.702 334.702 0 0 0 48.253 3.496h45.494c16.147 0 32.274-1.168 48.253-3.496 66.062-9.624 109.254-24.988 134.112-47.708C474.368 447.434 480 436.238 480 422c0-28.208-26.638-51.616-78.472-68.962-11.57-3.87-22.818-7.038-25-7.038a7.22 7.22 0 0 0-6.092 3.345l-35.654 56.043c-20.78 32.662-41.262 62.808-45.514 66.992-7.76 7.63-22.39 13.62-33.268 13.62-10.886 0-25.508-5.99-33.268-13.628-4.252-4.186-24.784-34.332-45.626-66.992l-35.685-55.918a7.284 7.284 0 0 0-6.315-3.364c-2.258.054-13.384 3.182-24.722 6.952Z" fill="#6D1F25"/></svg><svg fill="none" viewBox="0 0 500 500" id="location2" xmlns="http://www.w3.org/2000/svg"><path fill-rule="evenodd" clip-rule="evenodd" d="M232.526.422c-32.319 3.365-61.807 14.74-86.332 33.305-37.492 28.38-60.139 65.901-67.867 112.439L77 154.162l.037 15.993.037 15.993 1.296 8.36c7.78 50.213 35.297 97.091 107.1 182.463 13.122 15.602 25.531 30.139 45.558 53.371l10.603 12.3 3.893 1.778 3.894 1.779 2.512-.407c1.381-.224 3.66-1.115 5.063-1.98 2.945-1.816 51.405-58.338 73.2-85.378 38.567-47.848 57.549-75.101 71.775-103.05 9.276-18.222 15.371-35.587 19.033-54.225l1.951-9.922.043-19.264c.046-19.515-.185-22.121-3.26-36.777-9.103-43.402-34.947-80.578-74.377-106.994-20.27-13.58-46.686-23.226-73.126-26.703C261.612.102 240.978-.457 232.526.422ZM161.129 403.16c-36.67 6.378-61.473 15.75-71.95 27.19-4.132 4.511-5.753 7.581-6.912 13.09l-.823 3.919 1.258 4.517c2.444 8.768 8.471 14.937 20.796 21.285 21.954 11.307 51.634 18.435 98.065 23.549l11.657 1.284 35.698.007c36.479.007 40.573-.201 65.555-3.336 38.7-4.858 72.889-14.65 89.26-25.568 5.178-3.453 10.883-9.297 12.891-13.206 2.225-4.333 2.953-10.719 1.67-14.66-1.474-4.53-5.624-10.192-10.074-13.743-5.285-4.218-16.332-9.626-27.418-13.421-20.883-7.148-53.633-14.02-58.595-12.295-1.24.432-4.294 3.487-7.758 7.765-15.983 19.729-33.019 40.19-36.321 43.622-4.811 4.999-10.371 8.657-16.378 10.772l-4.818 1.698-6.557.006c-10.83.011-19.031-2.99-26.311-9.629-2.25-2.052-9.593-10.451-16.318-18.665l-19.96-24.385c-7.831-9.571-10.543-12.028-13.179-11.937-.801.028-6.866.991-13.478 2.141Z" fill="#3F3F3F"/><ellipse cx="250.5" cy="170.5" rx="98.5" ry="97.5" fill="#F51E1E"/></svg><svg viewBox="0 0 512 512" id="phone" xmlns="http://www.w3.org/2000/svg"><g clip-path="url(#ra)"><path fill-rule="evenodd" clip-rule="evenodd" d="M237.5.6c-53.816 5.491-95.925 21.452-136.467 51.726-12.373 9.24-39.57 36.471-48.903 48.966C25.844 136.483 9.58 175.141 2.818 218.5l-2.184 14v47l2.184 14c4.314 27.665 11.753 51.267 23.763 75.393 12.89 25.894 25.44 43.764 44.919 63.954 22.074 22.88 43.893 38.923 71 52.203 26.015 12.746 48.316 19.828 76 24.137l14 2.179h47l14-2.184c43.271-6.748 82.135-23.122 117.412-49.467 12.34-9.215 39.588-36.463 48.803-48.803 20.937-28.035 36.127-59.614 44.371-92.242 3.331-13.185 6.902-35.335 6.909-42.861.003-2.58.455-4.969 1.005-5.309.595-.368 1-6.697 1-15.618 0-9.745-.35-14.784-1-14.382-.614.379-1.002-1.241-1.005-4.191-.007-7.63-3.557-29.71-6.909-42.979-8.31-32.89-23.476-64.422-44.244-91.992-8.909-11.826-28.228-32.063-39.964-41.863-35.901-29.976-79.504-49.528-126.165-56.573C281.056.991 247.242-.393 237.5.6Zm-94 101.304c-5.519 2.567-28.481 24.782-33.461 32.372-5.73 8.734-9.099 19.88-9.768 32.322l-.543 10.097 1.708 10.403c9.105 55.473 61.91 128.607 128.812 178.402 32.308 24.048 66.873 40.504 94.654 45.064l10.403 1.708 10.097-.543c12.442-.669 23.588-4.038 32.322-9.768 7.59-4.98 29.805-27.942 32.372-33.461a18.834 18.834 0 0 0-.015-16c-2.587-5.519-55.23-57.869-60.299-59.964-9.289-3.838-15.054-1.5-28.46 11.543-6.31 6.14-12.149 10.872-15.063 12.208l-4.759 2.183-8 .015-8 .015-9-4.798c-30.915-16.48-61.722-47.287-78.202-78.202l-4.798-9 .015-8 .015-8 2.183-4.759c1.336-2.914 6.068-8.753 12.208-15.063 5.513-5.667 10.712-11.949 11.552-13.959 2.035-4.871 1.894-10.342-.392-15.219-2.587-5.519-55.23-57.869-60.299-59.964-4.935-2.039-10.389-1.907-15.282.368ZM.402 256c0 8.525.154 12.012.34 7.75.189-4.262.189-11.238 0-15.5-.186-4.262-.34-.775-.34 7.75Z"/></g><defs><clipPath id="ra"><path fill="#fff" d="M0 0h512v512H0z"/></clipPath></defs></svg><svg viewBox="0 0 512 512" id="search" xmlns="http://www.w3.org/2000/svg"><g clip-path="url(#sa)"><path fill-rule="evenodd" clip-rule="evenodd" d="M232.5 1.018c-33.733 3.748-62.921 12.225-91 26.43C49.836 73.817-5.658 170.364 1.077 271.75c4.231 63.684 29.551 119.81 74.372 164.857 39.535 39.734 88.675 64.288 146.246 73.076l10.805 1.649 23.5.046 23.5.046 12-1.775c85.362-12.628 156.646-64.354 194.521-141.149 35.1-71.17 35.1-153.83 0-225C448.208 66.83 376.245 14.525 292 2.476 278.632.565 244.179-.28 232.5 1.018Zm-4.731 103.96c-61.908 7.85-110.485 54.294-121.338 116.009-1.914 10.882-1.935 34.937-.04 45.531 3.805 21.274 9.808 36.664 21.071 54.019 20.623 31.779 54.602 54.216 92.538 61.102 13.061 2.371 36.332 2.329 49-.088 20.492-3.911 42.32-13.205 57.5-24.483l8-5.943 27.5 27.332c15.125 15.033 28.483 27.83 29.684 28.438 4.793 2.425 11.557.438 14.668-4.309.942-1.438 1.648-4.535 1.648-7.227v-4.712l-28.157-28.27-28.158-28.27 1.408-1.922c16.778-22.909 24.883-41.214 29.083-65.685l2.06-12-.556-15.5-.555-15.5-2.513-10.761c-12.616-54.036-54.382-94.612-108.924-105.82-11.441-2.351-33.128-3.31-43.919-1.941Zm-1.984 24.573c-23.719 3.693-45.424 14.942-63.406 32.86-22.048 21.97-33.611 49.795-33.696 81.089-.038 13.853 1.411 23.465 5.374 35.639 13.363 41.055 46.91 70.507 89.943 78.965 9.737 1.914 32.755 1.626 43-.538 35.316-7.458 65.519-30.581 81.412-62.329C355.578 280.923 360 261.37 360 244c0-71.466-63.347-125.484-134.215-114.449ZM.32 256c0 3.575.182 5.038.403 3.25.222-1.788.222-4.713 0-6.5-.22-1.787-.403-.325-.403 3.25Z"/></g><defs><clipPath id="sa"><path fill="#fff" d="M0 0h512v512H0z"/></clipPath></defs></svg><svg viewBox="0 0 512 512" id="telegram" xmlns="http://www.w3.org/2000/svg"><g clip-path="url(#ta)"><path fill-rule="evenodd" clip-rule="evenodd" d="M55.5 1.604C51.65 2.396 44.225 5.126 39 7.67l-9.5 4.625-8.603 8.602-8.602 8.603-4.62 9.5c-2.748 5.652-5.238 12.622-6.147 17.208L0 63.916v384.168l1.528 7.708c.909 4.586 3.399 11.556 6.147 17.208l4.62 9.5 8.602 8.558 8.603 8.557 8 4.106c4.4 2.259 10.925 4.933 14.5 5.943l6.5 1.836h395l6.5-1.836c3.575-1.01 10.1-3.684 14.5-5.943l8-4.106 8.558-8.557 8.557-8.558 4.106-8c4.104-7.996 7.279-17.982 7.279-22.894 0-1.433.45-2.606 1-2.606.663 0 .995-65.406.985-194.25-.01-125.779-.357-193.721-.985-192.75l-.969 1.5-.016-2.856c-.028-5.19-3.128-15.027-7.294-23.144l-4.106-8-8.557-8.603-8.558-8.602-9.5-4.62c-5.652-2.748-12.622-5.238-17.208-6.147L448.084 0 255.292.082 62.5.163l-7 1.441ZM.49 256c0 106.975.117 150.737.26 97.25.143-53.488.143-141.013 0-194.5C.607 105.262.49 149.025.49 256ZM397 131.705c-.825.301-65.691 23.654-144.148 51.897-78.456 28.242-145.175 52.295-148.264 53.451l-5.616 2.101-1.486 2.874c-2.202 4.257-1.817 7.581 1.264 10.925l2.75 2.984 37.5 10.172c20.625 5.595 37.997 10.671 38.605 11.282.608.61 7.288 19.403 14.844 41.762l13.74 40.654 2.731 2.616c3.621 3.47 8.102 4.686 12.645 3.431l3.603-.995 18.189-17.179c10.003-9.449 19.158-18.007 20.342-19.019l2.155-1.839 37.823 25.767c20.803 14.172 39.744 26.418 42.092 27.214l4.269 1.446 4.495-1.258c5.319-1.49 9.932-6.247 11.37-11.728C369.299 355.325 416 146.71 416 144.48c0-7.889-11.392-15.549-19-12.775Zm-123.791 91.13L191.917 269.5l-.623 2.473c-.431 1.71 2.702 12.498 10.163 35 10.332 31.158 11.838 35.065 13.051 33.853.297-.298 1.671-10.168 3.052-21.934 1.382-11.766 2.916-22.361 3.411-23.546.494-1.185 31.423-27.113 68.731-57.617 37.307-30.504 68.394-56.14 69.082-56.969 1.712-2.063.469-4.778-2.141-4.675-1.179.046-38.724 21.084-83.434 46.75Z"/></g><defs><clipPath id="ta"><path fill="#fff" d="M0 0h512v512H0z"/></clipPath></defs></svg><svg viewBox="0 0 500 500" id="time" xmlns="http://www.w3.org/2000/svg"><g clip-path="url(#ua)"><path fill-rule="evenodd" clip-rule="evenodd" d="M218.789 4.395c-11.564 5.91-15.25 11.572-21.351 32.816l-5.174 18.014-13.614 5.255c-7.486 2.893-16.279 6.65-19.541 8.356l-5.929 3.098-16.973-9.825-16.971-9.826h-9.474c-12.803 0-18.192 3.264-36.791 22.283-18.684 19.104-20.688 22.506-20.688 35.149v9.521l9.822 16.965 9.82 16.965-3.964 7.772c-2.182 4.273-5.951 13.097-8.38 19.609l-4.415 11.836-8.541 2.51a4991.64 4991.64 0 0 1-18.564 5.398c-12.768 3.68-19.8 9.246-24.358 19.281l-3.617 7.967v44.922l3.617 7.967c4.881 10.742 11.754 15.691 28.29 20.361 7.648 2.16 15.982 4.58 18.52 5.379l4.616 1.449 4.434 11.836c2.439 6.512 6.216 15.336 8.398 19.609l3.965 7.772-9.82 16.965-9.823 16.965v9.474c0 12.803 3.264 18.192 22.283 36.791 19.14 18.719 22.069 20.438 35.002 20.537l9.795.077 16.908-9.789 16.909-9.788 5.929 3.098c3.262 1.705 12.055 5.463 19.541 8.356l13.614 5.255 5.174 18.014c6.101 21.244 9.787 26.906 21.351 32.816l8.602 4.395h45.218l8.602-4.395c11.56-5.908 15.25-11.572 21.338-32.769l5.16-17.967 11.791-4.433c6.484-2.438 15.289-6.215 19.562-8.397l7.772-3.965 16.965 9.821 16.965 9.822h9.521c12.643 0 16.045-2.004 35.149-20.688 19.019-18.599 22.283-23.988 22.283-36.791v-9.474l-9.822-16.965-9.821-16.965 3.965-7.772c2.182-4.273 5.959-13.078 8.397-19.562l4.433-11.791 17.967-5.16c21.42-6.153 26.695-9.672 33.588-22.41l5.211-9.631.16-23.276c.086-12.8-.391-22.724-1.063-22.052-.671.67-3.087-2.428-5.371-6.885-5.658-11.051-11.529-14.813-32.525-20.844l-17.967-5.16-4.433-11.791c-2.438-6.484-6.215-15.289-8.397-19.562l-3.965-7.772 9.821-16.965 9.822-16.965v-9.474c0-12.803-3.264-18.192-22.283-36.791-19.104-18.684-22.506-20.688-35.149-20.688h-9.521l-16.965 9.822-16.965 9.82-7.772-3.964c-4.273-2.182-13.078-5.959-19.562-8.396l-11.791-4.434-5.16-17.967c-6.088-21.197-9.778-26.861-21.338-32.77L272.609 0h-45.218l-8.602 4.395Zm5.967 107.103c-13.854 2.719-27.475 7.615-42.139 15.145l-13.672 7.021-17.64 17.641-17.641 17.64-7.068 13.672c-10.264 19.85-15.412 38.283-16.658 59.643l-1.084 18.627 3.296 16.529c2.055 10.309 6.659 23.488 12.231 35.022l8.933 18.492 17.815 17.703 17.816 17.703 13.672 7.082c7.52 3.894 20.264 9.141 28.321 11.656l14.648 4.574h48.828l14.648-4.574c8.057-2.515 20.801-7.762 28.321-11.656l13.672-7.082 17.64-17.641 17.641-17.64 7.082-13.672c3.894-7.52 9.141-20.264 11.656-28.321l4.574-14.648v-48.828l-4.574-14.648c-2.515-8.057-7.762-20.801-11.656-28.321l-7.082-13.672-17.703-17.816-17.703-17.815-18.492-8.921c-27.917-13.471-60.401-18.247-87.682-12.895Zm2.215 31.977c-63.09 14.365-99.934 78.261-80.655 139.869 10.102 32.277 38.549 60.453 71.375 70.689l13.754 4.289h37.11l13.754-4.289c33.632-10.488 61.236-38.092 71.724-71.724l4.289-13.754v-37.11l-4.289-13.754c-10.242-32.843-38.476-61.339-70.689-71.345-16.869-5.239-40.656-6.451-56.373-2.871Zm12.199 33.195-4.795 4.793v75.168l20.121 20.123 20.123 20.121h6.334c8.412 0 15.922-7.439 15.922-15.775v-6.186l-15.625-16.008-15.625-16.01v-61.433l-4.795-4.793c-3.021-3.024-7.025-4.795-10.83-4.795-3.805 0-7.809 1.771-10.83 4.795ZM.752 250c0 13.428.312 18.922.693 12.207.383-6.713.383-17.699 0-24.414-.38-6.713-.693-1.221-.693 12.207Z"/></g><defs><clipPath id="ua"><path fill="#fff" d="M0 0h500v500H0z"/></clipPath></defs></svg><svg viewBox="0 0 512 512" id="user" xmlns="http://www.w3.org/2000/svg"><path fill-rule="evenodd" clip-rule="evenodd" d="M240.955 49.028c-51.078 7.164-90.735 48.507-96.199 100.291l-1.142 10.819 1.21 10.877c5.147 46.287 36.511 83.862 80.497 96.439 39.118 11.185 79.028.428 108.813-29.329 15.618-15.603 24.976-31.822 30.612-53.051l2.542-9.574v-32l-2.603-9.813c-4.735-17.857-11.276-30.808-22.726-44.999-14.484-17.952-35.613-31.154-59.646-37.268l-9.813-2.496-12.5-.407c-6.875-.224-15.445.006-19.045.51Zm-91.192 220.279c-20.604 12.822-41.525 30.934-54.997 47.614-28.137 34.834-44.011 76.502-46.319 121.579l-.614 12 2.333 4.5 2.334 4.5 4.462 2.25 4.462 2.25h389.152l4.462-2.25 4.462-2.25 2.332-4.5 2.331-4.5-.634-12.317c-2.116-41.141-15.289-78.371-40.086-113.292-7.365-10.373-31.159-34.512-42.13-42.743-4.503-3.378-12.281-8.636-17.285-11.685l-9.099-5.543-7.214 5.93c-18.656 15.334-39.03 25.144-63.027 30.346l-10.188 2.208h-37l-10.188-2.208c-23.973-5.197-44.372-15.013-62.978-30.306-3.942-3.239-7.317-5.864-7.5-5.833-.184.032-3.366 1.944-7.071 4.25Z"/></svg><svg viewBox="0 0 512 512" id="user2" xmlns="http://www.w3.org/2000/svg"><path fill-rule="evenodd" clip-rule="evenodd" d="M194 28.428c-39.281 8.262-69.464 37.32-79.216 76.265l-2.205 8.807v29l2.205 8.807c4.885 19.508 14.195 35.655 28.387 49.236 13.476 12.895 27.894 21.102 44.829 25.518l8.5 2.217 13.5.457 13.5.458 9.5-1.976c20.284-4.219 36.916-13.063 51.093-27.168 17.661-17.572 27.046-37.02 29.96-62.091l1.158-9.958-1.158-9.958c-2.882-24.795-12.266-44.413-29.474-61.621-13.026-13.027-25.722-20.496-44.179-25.994l-8.9-2.65-15.5-.358c-10.555-.244-17.574.078-22 1.009Zm1.802 233.609c-50.017 4.167-99.598 28.307-129.855 63.223C39.713 355.534 27 389.104 27 428.103v14.905l126.249-.254 126.25-.254 2.631-11.5 2.631-11.5-4.175-4.5a5709.78 5709.78 0 0 0-11.926-12.786c-9.433-10.085-13.123-15.744-15.696-24.069-6.969-22.552 4.147-47.795 25.416-57.715 2.684-1.251 13.672-4.448 24.417-7.103l19.537-4.827 3.333-5.202c1.833-2.861 3.333-5.432 3.333-5.713 0-1.064-12.341-8.829-21.555-13.563-33.588-17.256-73.667-25.149-111.643-21.985Zm180.564 22.882c-4.296 2.619-6.283 5.527-19.867 29.081-6.502 11.275-12.15 20.878-12.55 21.34-.401.462-11.984 3.66-25.741 7.108-14.158 3.548-26.528 7.204-28.504 8.426-6.358 3.93-8.783 14.22-4.859 20.626 1.011 1.65 9.245 11.006 18.297 20.791l16.46 17.791-6.365 28.209-6.365 28.209.405 4.622c.726 8.281 6.991 13.878 15.536 13.878h4.011l28.592-11.965 28.592-11.965 28.617 11.965L441.242 485h3.978c8.512 0 14.779-5.61 15.503-13.878l.405-4.622-6.364-28.204-6.363-28.203 16.9-18.297c9.295-10.063 17.579-19.607 18.41-21.21 2.126-4.103 1.301-12.298-1.64-16.275-3.144-4.254-6.443-5.498-30.071-11.342-11.275-2.788-22.12-5.496-24.1-6.017l-3.599-.948-12.305-21.252c-6.768-11.689-13.412-22.753-14.766-24.587-3.513-4.76-7.945-7.158-13.23-7.158-2.67 0-5.774.778-7.634 1.912Z"/></svg><svg viewBox="0 0 512 512" id="viber" xmlns="http://www.w3.org/2000/svg"><g clip-path="url(#xa)"><path fill-rule="evenodd" clip-rule="evenodd" d="M200 1.082c-35.645 1.34-76.344 4.254-104.933 7.512C78.91 10.436 66.871 14.078 55 20.718l-8.5 4.755-10.514 10.513L25.473 46.5 20.718 55C11.18 72.054 9.062 82.668 5.06 133.5-2.43 228.653-1.174 329.511 8.593 417l1.507 13.5 3.285 9.658c1.806 5.312 5.271 13.182 7.7 17.49l4.415 7.833L36 475.999l10.5 10.519 7.842 4.406c4.313 2.424 12.188 5.885 17.5 7.691L81.5 501.9l13.5 1.518c45.548 5.124 110.219 8.563 161 8.563 50.781 0 115.452-3.439 161-8.563l13.5-1.518 9.658-3.285c5.312-1.806 13.187-5.27 17.5-7.698l7.842-4.414 10.501-10.502 10.502-10.501 4.414-7.842c2.428-4.313 5.892-12.188 7.698-17.5l3.285-9.658 1.507-13.5c3.522-31.547 6.349-72.126 7.265-104.29.357-12.535 1.027-23.024 1.489-23.309.461-.286.839-15.819.839-34.519 0-22.412-.341-33.789-1-33.382-.645.398-1-3.471-1-10.886 0-23.052-4.014-84.409-7.564-115.614L501.9 81.5l-3.285-9.658c-1.806-5.312-5.27-13.187-7.698-17.5l-4.414-7.842-10.502-10.501L465.5 25.497l-7.89-4.441c-8.983-5.057-20.676-9.444-29.254-10.975-8.598-1.534-43.502-4.81-69.856-6.558C307.699.156 248.773-.751 200 1.082Zm29 101.508c-1.925.219-8.45.877-14.5 1.461-19.342 1.869-38.387 5.554-46.5 8.998-23.415 9.939-47.792 34.006-56.645 55.923-2.834 7.016-5.555 19.882-7.939 37.528l-1.756 13-.002 23c-.003 23.624 1.126 35.865 5.331 57.805l1.954 10.195 4.967 10c11.079 22.304 34.601 44.123 55.738 51.704l6.352 2.278v17.694c0 10.106.457 18.901 1.067 20.509 2.433 6.423 8.976 10.089 15.748 8.825l3.685-.687 18.5-18.995 18.5-18.994 26-.318c33.628-.411 65.383-4.135 80.934-9.491 23.537-8.107 50.015-32.971 59.727-56.087 7.698-18.322 12.298-61.969 9.896-93.905-1.52-20.211-5.53-43.735-8.97-52.616-8.683-22.419-34.016-47.903-57.067-57.409-7.98-3.291-21.82-6.183-41.02-8.571-11.793-1.468-65.557-2.81-74-1.847Zm-6.5 28.464c-14.174 1.426-36.112 4.898-40.313 6.38-15.132 5.339-30.875 18.444-40.344 33.585-4.581 7.325-5.66 9.991-7.436 18.374-6.613 31.216-6.95 67.962-.925 100.813l2.33 12.706 3.844 7.294 3.844 7.294 10 10c10.012 10.012 16.769 14.784 26.698 18.855 2.916 1.195 5.865 2.531 6.552 2.968l1.25.795v57.945l1.439.552c.792.304 2.052.177 2.8-.281.748-.459 12.772-12.534 26.72-26.834l25.359-26 18.759-.653c33.295-1.159 61.399-5.03 71.816-9.892 17.26-8.056 35.539-26.921 40.756-42.062 2.043-5.93 5.027-24.255 6.415-39.393 2.007-21.889.158-52.252-4.528-74.379-2.951-13.933-12.438-28.046-26.428-39.316-13.359-10.762-21.004-13.466-49.108-17.374-13.555-1.884-65.508-2.784-79.5-1.377Zm28.071 33.517c-4.092 4.093-.15 6.952 10.929 7.929 19.503 1.719 36.265 10.765 47.973 25.892 8.649 11.174 12.704 22.572 14.091 39.608.381 4.675 1.115 9.314 1.631 10.31 1.163 2.24 5.642 1.927 7.161-.5l1.058-1.69-1.224-11.01c-.673-6.056-2.168-14.07-3.322-17.81-6.953-22.539-23.121-40.172-44.903-48.97-12.496-5.047-30.121-7.031-33.394-3.759Zm-58.2 11.267c-10.167 6.572-16.739 15.903-16.665 23.662.044 4.656 8.563 24.97 16.325 38.928 15.205 27.344 36.428 49.601 62.925 65.991 16.935 10.476 39.254 20.6 45.32 20.559 8.104-.055 20.636-10.175 25.348-20.469l2.531-5.527-.653-2.972c-.792-3.605-6.457-8.772-20.002-18.244-17.238-12.054-19.441-12.217-29.179-2.152L272.142 282h-4.374c-9.78 0-28.361-12.068-37.49-24.349-6.015-8.093-12.278-21.415-12.278-26.119v-3.674l6.379-6.179c6.921-6.705 8.14-9.101 7.193-14.146-.812-4.332-13.507-23.476-20.038-30.218L206.387 172h-8.077l-5.939 3.838Zm64.64 8.649c-1.809 2.179-.428 6.4 2.254 6.893 1.229.226 5.16.939 8.735 1.583 9.199 1.659 16.132 5.103 22.611 11.231C298.887 212.021 304 223.789 304 235.01c0 2.525.54 5.13 1.2 5.79 1.543 1.543 5.057 1.543 6.6 0 2.87-2.87.583-17.904-4.35-28.601l-3.367-7.301-6.292-6.274c-3.938-3.928-8.722-7.453-12.791-9.427-11.621-5.638-25.308-7.941-27.989-4.71Zm6.997 20.22c-2.314 1.621-2.622 4.539-.651 6.174.746.619 3.499 1.526 6.118 2.015 8.237 1.539 12.897 6.355 14.518 15.005 1.121 5.979 2.411 8.099 4.929 8.099 4.238 0 5.256-5.69 2.607-14.568-2.794-9.363-10.37-15.737-20.635-17.36l-4.879-.771-2.007 1.406ZM.45 256c0 18.975.134 26.738.298 17.25.165-9.488.165-25.012 0-34.5C.584 229.262.45 237.025.45 256Z"/></g><defs><clipPath id="xa"><path fill="#fff" d="M0 0h512v512H0z"/></clipPath></defs></svg><svg viewBox="0 0 512 512" id="whatsapp" xmlns="http://www.w3.org/2000/svg"><g clip-path="url(#ya)"><path fill-rule="evenodd" clip-rule="evenodd" d="M114.609 1.046C70.902 6.223 33.582 32.18 14.029 71 8.667 81.646 3.896 95.759 1.86 107L.5 114.5v285l1.86 8.46c5.637 25.663 16.96 47.09 34.14 64.609 18.97 19.343 41.697 31.538 69.23 37.145l8.77 1.786h283l9-1.815c47.372-9.552 83.828-41.521 98.906-86.734 1.917-5.748 4.005-14.501 4.641-19.451.635-4.95 1.559-9.781 2.054-10.736 1.264-2.441 1.163-275.72-.101-273.764l-.969 1.5-.016-3.843c-.027-6.878-4.063-23.926-8.123-34.311-16.045-41.048-52.056-70.961-96.392-80.07l-8-1.644L260 .431c-76.175-.111-141.601.166-145.391.615ZM243 97.055c-61.271 6.669-112.61 46.941-132.43 103.882-1.966 5.647-4.567 14.834-5.782 20.415L102.58 231.5v41l2.208 10.148c2.957 13.587 8.332 28.771 14.321 40.452l4.923 9.601-13.978 40.854c-7.687 22.471-13.763 41.069-13.5 41.331.261.262 19.706-5.652 43.21-13.142l42.736-13.618 8 3.914c23.485 11.489 52.56 16.965 79.3 14.935 71.022-5.391 127.518-54.821 142.838-124.975l1.856-8.5.003-21.5.003-21.5-2.324-10.381C397.989 156.755 348.257 109.248 285 98.633c-12.195-2.046-31.153-2.759-42-1.578ZM.486 256c0 75.625.12 106.563.264 68.75.145-37.812.145-99.687 0-137.5C.605 149.438.486 180.375.486 256ZM248.5 121.603c-33.777 3.389-62.57 17.124-85.094 40.592-17.069 17.784-28.206 39.043-33.567 64.071l-2.191 10.234.021 15.5.022 15.5 2.17 10.234c3.571 16.837 10.182 32.847 18.692 45.266l3.769 5.5-8.129 23.949c-4.471 13.171-7.999 24.078-7.84 24.237.158.159 11.456-3.276 25.105-7.632l24.816-7.922 7.613 4.392c31.352 18.086 72.319 21.842 107.951 9.898 31.98-10.719 60.228-35.464 75.585-66.211 8.91-17.838 12.974-35.587 12.983-56.711.013-27.734-6.603-49.586-22.026-72.754-19.252-28.919-51.981-50.307-86.085-56.254-8.861-1.545-27.075-2.563-33.795-1.889Zm-48 60.734c-4.561 2.084-11.305 10.032-14.835 17.483l-3.165 6.68v21l2.883 7.836c3.1 8.426 13.412 24.686 23.365 36.84 13.382 16.342 30.973 31.093 46.252 38.783 9.195 4.628 27.816 11.211 38.268 13.528l7.768 1.722 6.943-1.568c8.957-2.023 16.07-5.671 22.156-11.364l4.87-4.556 1.498-5.042c.823-2.773 1.497-7.454 1.497-10.402v-5.359l-16.939-8.331c-9.317-4.582-18.174-8.567-19.681-8.855l-2.742-.524-2.569 2.688c-1.413 1.478-5.183 5.931-8.378 9.896L281.882 290h-2.719c-5.795 0-22.96-9.67-34.385-19.371-7.861-6.674-22.778-25.961-22.778-29.45 0-1.333 1.902-4.605 4.372-7.52 4.77-5.629 7.628-10.6 7.628-13.266 0-2.251-12.98-33.732-14.96-36.282l-1.54-1.983-7-.581c-4.892-.406-7.903-.168-10 .79Z"/></g><defs><clipPath id="ya"><path fill="#fff" d="M0 0h512v512H0z"/></clipPath></defs></svg></svg>