<?xml version="1.0" encoding="utf-8"?><svg viewBox="0 0 512 512" xmlns="http://www.w3.org/2000/svg" xmlns:xlink="http://www.w3.org/1999/xlink"><style>:root>svg{display:none}:root>svg:target{display:block}</style><svg viewBox="0 0 512 512" id="arrow" xmlns="http://www.w3.org/2000/svg"><path fill-rule="evenodd" clip-rule="evenodd" d="m247.502 97.998-29.991 30.004 42.49 42.499L302.491 213H64v86H302.491l-42.492 42.501-42.493 42.501 29.999 29.999L277.504 444l93.997-94.001 93.996-94-94.002-94.002-94.002-94.003-29.991 30.004Z"/></svg><svg viewBox="0 0 512 512" id="arrow2" xmlns="http://www.w3.org/2000/svg"><path fill-rule="evenodd" clip-rule="evenodd" d="M61 117.035c-19.52 3.467-34.252 18.456-37.264 37.915l-1.115 7.206 1.125 6.57c.62 3.614 2.561 9.541 4.317 13.172l3.191 6.602 97.123 97.297c54.251 54.349 99.505 98.888 102.519 100.9 15.34 10.244 37.232 9.781 51.759-1.095 3.215-2.407 49.082-47.74 101.927-100.739l96.083-96.363 2.782-6.379c1.529-3.509 3.256-9.448 3.837-13.198l1.055-6.818-1.28-7.16c-5.204-29.121-37.463-45.681-64.009-32.859l-6.55 3.164-80.25 80.11L256 285.471l-81.25-81.07-81.25-81.07-6-2.606c-5.422-2.355-16.677-4.88-20.5-4.6-.825.061-3.525.47-6 .91Z"/></svg><svg viewBox="0 0 512 512" id="arrow3" xmlns="http://www.w3.org/2000/svg"><path fill-rule="evenodd" clip-rule="evenodd" d="M61 117.035c-19.52 3.467-34.252 18.456-37.264 37.915l-1.115 7.206 1.125 6.57c.62 3.614 2.561 9.541 4.317 13.172l3.191 6.602 97.123 97.297c54.251 54.349 99.505 98.888 102.519 100.9 15.34 10.244 37.232 9.781 51.759-1.095 3.215-2.407 49.082-47.74 101.927-100.739l96.083-96.363 2.782-6.379c1.529-3.509 3.256-9.448 3.837-13.198l1.055-6.818-1.28-7.16c-5.204-29.121-37.463-45.681-64.009-32.859l-6.55 3.164-80.25 80.11L256 285.471l-81.25-81.07-81.25-81.07-6-2.606c-5.422-2.355-16.677-4.88-20.5-4.6-.825.061-3.525.47-6 .91Z"/></svg><svg viewBox="0 0 512 512" id="cart" xmlns="http://www.w3.org/2000/svg"><path fill-rule="evenodd" clip-rule="evenodd" d="M67.852 27.391C57.997 30.912 51.648 40.144 51.61 51.01l-.023 6.51 2.274 4.696c2.549 5.265 7.71 10.248 13.065 12.613l3.573 1.578 18.94.547 18.94.547 21.347 85.396 21.348 85.396-14.883 15.104-14.883 15.104-3.049 6.5c-7.144 15.227-7.012 29.188.427 44.858 6.189 13.04 18.16 22.887 32.444 26.689l5.369 1.429 115.884.012 115.884.012 3.925-1.176c5.229-1.567 12.126-7.786 14.831-13.373l2.191-4.526-.369-7.31-.369-7.31-3.025-4.902c-3.401-5.514-11.044-10.743-17.184-11.758-2.072-.343-53.262-.628-113.754-.634L164.529 307l12.971-13 12.971-13 87.015-.01 87.014-.01 5.041-2.347c2.772-1.291 6.31-3.855 7.861-5.699 1.551-1.843 20.841-39.412 42.866-83.486l40.045-80.135.044-5.906c.024-3.249-.551-7.653-1.277-9.788-1.672-4.91-7.248-11.124-12.512-13.94L442.5 77.5 301.581 77l-140.92-.5-4.581-18.079-4.581-18.078-2.779-3.643c-3.425-4.49-8.137-8.06-12.619-9.562-2.259-.756-13.669-1.123-34-1.094l-30.601.044-3.648 1.303Zm89.766 357.658c-6.163 1.547-15.339 6.9-19.248 11.227-1.977 2.187-5.004 6.958-6.727 10.601l-3.133 6.623v18l3.077 6.503c11.334 23.955 41.26 30.068 60.409 12.34 6.775-6.272 10.532-13.098 12.096-21.972l1.067-6.06-1.088-5.905c-2.363-12.82-10.237-23.249-21.553-28.544l-6.431-3.01-7.293-.389c-4.012-.214-9.041.05-11.176.586Zm204.382.325c-7.471 2.057-12.241 4.798-17.561 10.09-6.715 6.68-10.455 14.715-11.154 23.956l-.543 7.179 1.71 5.951c5.459 18.991 24.777 31.211 43.325 27.407 12.4-2.543 21.92-9.737 27.889-21.074l2.834-5.383v-22l-2.816-5.5c-8.462-16.527-26.918-25.242-43.684-20.626Z"/></svg><svg viewBox="0 0 512 512" id="edit" xmlns="http://www.w3.org/2000/svg"><g clip-path="url(#ea)"><path fill-rule="evenodd" clip-rule="evenodd" d="M425.468 2.05c-18.158 4.582-23.944 9.826-150.752 136.65L148.43 265l-19.214 58C118.646 354.9 110 383.096 110 385.654c0 6.01 10.336 16.346 16.346 16.346 2.558 0 30.754-8.646 62.654-19.216l58-19.214 126.3-126.286c127.052-127.036 113.002-113.569 125.502-129.569l5-9.5 3.5-9c6-20 6.208-30.187-2.176-48.503-6.19-13.52-20.45-27.708-34.152-33.982-12.164-5.568-33.346-7.746-45.506-4.68ZM44.652 38.088c-16.756 3.314-30.296 13.394-37.75 28.106L2 75.868v396.87l4.168 8.608c5.754 11.888 20.164 24.058 32.852 27.746l10.37 3.014 174.804-.552L399 511l10.878-6c11.138-6.142 21.07-17.698 25.47-29.632l2.348-6.368.152-101.322.152-101.322-6.154-5.178c-9.52-8.012-21.262-5.976-26.75 4.636L402 271.802v191.974l-4.826 5.612-4.826 5.612-169.674.534L53 476.068l-5.594-2.316c-3.078-1.274-6.902-4.844-8.5-7.934L36 460.198V86.064l5.834-6.532L47.668 73l118.344-1 118.344-1 3.822-4.722c7.568-9.35 4.024-22.726-7.274-27.448L274.128 36l-110.564.22c-60.81.12-114.32.96-118.912 1.868Z"/></g><defs><clipPath id="ea"><path fill="#fff" d="M0 0h512v512H0z"/></clipPath></defs></svg><svg viewBox="0 0 512 512" id="eye" xmlns="http://www.w3.org/2000/svg"><g clip-path="url(#fa)"><path fill-rule="evenodd" clip-rule="evenodd" d="M227 105.352c-56.348 7.072-110.954 31.322-157.148 69.79-17.562 14.626-46.888 44.896-59.806 61.734L1.09 248.548v14.904l8.89 11.774c14.494 19.202 59.588 62.754 80.02 77.29 47.23 33.596 101.198 52.596 156 54.922l25 1.06 22.774-3.358c44.2-6.518 89.172-25.038 128.05-52.73C461.192 324.368 514 267.312 514 252.822c0-1.682-.9-2.502-2-1.822-1.1.68-2-.012-2-1.538 0-4.484-29.704-38.976-50.386-58.51-60.538-57.17-133.078-87.704-205.87-86.652-11.41.164-23.444.638-26.744 1.052Zm3 45.806c-18.818 4.952-36.05 14.892-50 28.842-60.1 60.1-31.416 159.772 52.144 181.196L245 364.492l17-1.08c22.058-1.404 38.61-7.3 56.546-20.142 17.138-12.274 32.88-32.924 39.412-51.7 2.468-7.096 4.844-19.974 5.454-29.57l1.08-17-3.272-13c-14.876-59.094-74.432-95.786-131.22-80.842Zm11 49.52c-18.766 6.216-29.84 15.804-37.33 32.322l-4.534 10 .022 13 .02 13 4.534 10.214c5.642 12.708 16.25 23.232 29.288 29.054l10 4.468 13-.022c23.47-.036 42.64-12.38 52.358-33.714l4.556-10-.094-14-.094-14-5.184-10c-12.854-24.792-42.48-38.292-66.542-30.322ZM.316 256c0 2.75.454 3.876 1.008 2.5.556-1.374.556-3.624 0-5-.554-1.374-1.008-.25-1.008 2.5Z"/></g><defs><clipPath id="fa"><path fill="#fff" d="M0 0h512v512H0z"/></clipPath></defs></svg><svg viewBox="0 0 512 512" id="facebook" xmlns="http://www.w3.org/2000/svg"><g clip-path="url(#ga)"><path fill-rule="evenodd" clip-rule="evenodd" d="M112.5 1.073c-27.41 3.304-54.297 16.601-74.552 36.87C19.105 56.796 6.63 80.666 1.858 107L.5 114.5v286l2.696 11.254c12.902 53.857 57.537 93.52 111.771 99.321 6.167.66 58.26.901 147.533.683l138-.338 9-2.102c17.635-4.119 33.272-10.926 47.442-20.651 9.639-6.616 24.219-21.051 30.975-30.667 11.245-16.006 19.906-37.373 22.135-54.609.632-4.89 1.554-9.672 2.049-10.627 1.29-2.492 1.19-275.062-.101-274.264-.593.366-1-.786-1-2.831 0-5.502-2.773-18.623-5.865-27.75-6.488-19.158-17-35.95-31.569-50.43C455.774 19.806 435.389 8.73 409.5 2.681l-9-2.103L260 .404c-77.275-.096-143.65.205-147.5.67Zm153.354 96.038c-18.819 2.428-35.64 13.03-44.675 28.159-7.45 12.476-10.179 25.961-10.179 50.302V191h-28v65h31.988l.256 79.25.256 79.25 30.25.265 30.25.264V256h49l.011-1.75c.006-.963 1.126-14.125 2.489-29.25s2.483-28.963 2.489-30.75L330 191h-50.272l.474-14.757.474-14.757 1.797-3.787c.988-2.083 3.199-4.555 4.912-5.493l3.115-1.706 19.25-.326 19.25-.327V96l-28.25.126c-15.538.07-31.241.513-34.896.985ZM.486 256c0 75.625.119 106.563.264 68.75.145-37.812.145-99.687 0-137.5C.605 149.438.486 180.375.486 256Z"/></g><defs><clipPath id="ga"><path fill="#fff" d="M0 0h512v512H0z"/></clipPath></defs></svg><svg viewBox="0 0 512 512" id="favorite" xmlns="http://www.w3.org/2000/svg"><path fill-rule="evenodd" clip-rule="evenodd" d="M141.5 74.116c-32.02 4.652-61.558 23.013-78.67 48.902-7.149 10.814-10.16 16.867-13.813 27.772-11.379 33.964-6.276 70.922 13.992 101.344 5.931 8.901 178.953 182.352 184.491 184.947 5.103 2.392 11.894 2.393 17 .002 2.754-1.289 31.606-29.558 92.599-90.728l88.599-88.855 4.198-6.5c30.213-46.781 24.007-106.858-14.993-145.149-17.184-16.87-39.01-27.806-62.6-31.362-29.236-4.406-59.437 2.588-83.303 19.292-3.575 2.503-12.456 10.41-19.736 17.573l-13.237 13.023-13.763-13.509c-14.672-14.4-21.02-19.217-33.764-25.614-19.975-10.028-45.471-14.266-67-11.138Z"/></svg><svg viewBox="0 0 512 512" id="home" xmlns="http://www.w3.org/2000/svg"><path fill-rule="evenodd" clip-rule="evenodd" d="M248.5 34.371c-7.249 3.408-209.63 112.493-211.361 113.925-.801.662-2.275 3.004-3.276 5.204l-1.819 4-.022 154.538L32 466.576l2.25 4.462 2.25 4.462 4.462 2.25 4.462 2.25h66.554l.261-130.927.261-130.927 2.062-2.761c1.134-1.519 3.304-3.689 4.823-4.823l2.762-2.062h267.706l2.762 2.062c1.519 1.134 3.689 3.304 4.823 4.823l2.062 2.761.261 130.927.261 130.927h66.554l4.462-2.25 4.462-2.25 2.25-4.462 2.25-4.462-.022-154.538-.022-154.538-1.899-4.184c-1.156-2.546-3.399-5.142-5.728-6.632C467.517 143.608 270.293 37.516 263.5 34.35c-6.275-2.925-8.743-2.921-15 .021ZM144 264v24h224v-48H144v24Zm0 80v24h224v-48H144v24Zm0 80v24h224v-48H144v24Z"/></svg><svg viewBox="0 0 512 512" id="instagram" xmlns="http://www.w3.org/2000/svg"><g clip-path="url(#ja)"><path fill-rule="evenodd" clip-rule="evenodd" d="M214.5.592C168.02 2.327 123.74 5.285 95 8.575c-24.844 2.844-41.482 10.279-57.84 25.844C20.341 50.422 11.522 69.124 8.592 95 3.497 139.995.028 205.157.023 256 .015 318.632 6.161 414.043 11.52 434.5c7.859 29.999 30.964 54.393 60.98 64.384 15.206 5.061 65.631 9.687 132 12.111 67.637 2.47 150.692-.475 211.5-7.5 27.293-3.153 42.879-10.276 60.049-27.446 12.605-12.605 20.258-25.62 24.431-41.549 3.7-14.124 8.892-76.17 10.192-121.79.357-12.535 1.027-23.024 1.489-23.309.461-.286.839-15.819.839-34.519 0-22.412-.341-33.789-1-33.382-.645.399-1.002-3.575-1.006-11.191-.02-34.857-6.587-117.805-10.515-132.809-7.853-29.993-30.963-54.393-60.979-64.384-12.497-4.159-50.53-8.142-106-11.101C313.429.945 231.35-.037 214.5.592Zm-40.666 96.954c-35.634 6.542-64.864 33.78-75.071 69.954l-2.257 8v161l2.264 8c3.186 11.251 11.033 26.621 18.303 35.849 11.68 14.825 31.506 27.616 50.927 32.857l8.5 2.294h159l8.5-2.256c9.272-2.461 22.296-8.315 29.759-13.376 18.725-12.698 33.055-32.837 39.502-55.514l2.233-7.854v-161l-2.215-7.784c-9.71-34.126-35.026-59.497-68.779-68.932l-8-2.236-77.5-.204-77.5-.205-7.666 1.407Zm8.547 31.429c-24.484 3.704-44.004 20.753-51.549 45.025l-2.332 7.5v149l2.332 7.5c6.456 20.769 21.069 35.807 41.537 42.744l8.131 2.756h150l7.5-2.332c20.686-6.43 35.834-21.151 42.744-41.537l2.756-8.131v-150l-2.332-7.5c-6.564-21.116-21.373-36.089-42.668-43.141l-7-2.318-72-.17c-39.6-.094-74.303.178-77.119.604Zm147.526 26.352c-2.424 1.279-5.728 4.202-7.343 6.495l-2.936 4.168-.422 5.833-.422 5.834 2.049 4.016c2.731 5.352 8.177 9.982 13.404 11.395l4.263 1.152 4.94-1.136c11.857-2.727 18.516-13.843 15.176-25.332-3.575-12.298-17.519-18.333-28.709-12.425Zm-85.592 18.681c-2.852.417-8.457 1.752-12.457 2.966-27.042 8.214-47.061 28.686-55.483 56.738l-2.638 8.788-.085 13-.084 13 1.805 7c.993 3.85 3.77 11.1 6.171 16.112 12.524 26.137 36.52 43.16 65.691 46.603l9.735 1.149 8.815-1.174c38.338-5.104 67.301-34.067 72.405-72.405l1.174-8.815-1.149-9.735c-5.532-46.869-47.947-79.946-93.9-73.227Zm-3.517 33.871c-15.86 5.216-28.174 17.672-32.92 33.298l-2.101 6.917.45 10.203.45 10.203 2.224 5.725c4.795 12.342 16.354 23.929 28.874 28.943l5.725 2.292h25l5.725-2.292c12.474-4.996 23.947-16.469 28.943-28.943l2.292-5.725v-25l-2.292-5.725c-5.012-12.514-16.583-24.062-28.943-28.883l-5.725-2.233-11-.328-11-.328-5.702 1.876ZM.45 256c0 18.975.134 26.738.298 17.25.165-9.488.165-25.012 0-34.5C.584 229.262.45 237.025.45 256Z"/></g><defs><clipPath id="ja"><path fill="#fff" d="M0 0h512v512H0z"/></clipPath></defs></svg><svg viewBox="0 0 512 512" id="phone" xmlns="http://www.w3.org/2000/svg"><g clip-path="url(#ka)"><path fill-rule="evenodd" clip-rule="evenodd" d="M237.5.6c-53.816 5.491-95.925 21.452-136.467 51.726-12.373 9.24-39.57 36.471-48.903 48.966C25.844 136.483 9.58 175.141 2.818 218.5l-2.184 14v47l2.184 14c4.314 27.665 11.753 51.267 23.763 75.393 12.89 25.894 25.44 43.764 44.919 63.954 22.074 22.88 43.893 38.923 71 52.203 26.015 12.746 48.316 19.828 76 24.137l14 2.179h47l14-2.184c43.271-6.748 82.135-23.122 117.412-49.467 12.34-9.215 39.588-36.463 48.803-48.803 20.937-28.035 36.127-59.614 44.371-92.242 3.331-13.185 6.902-35.335 6.909-42.861.003-2.58.455-4.969 1.005-5.309.595-.368 1-6.697 1-15.618 0-9.745-.35-14.784-1-14.382-.614.379-1.002-1.241-1.005-4.191-.007-7.63-3.557-29.71-6.909-42.979-8.31-32.89-23.476-64.422-44.244-91.992-8.909-11.826-28.228-32.063-39.964-41.863-35.901-29.976-79.504-49.528-126.165-56.573C281.056.991 247.242-.393 237.5.6Zm-94 101.304c-5.519 2.567-28.481 24.782-33.461 32.372-5.73 8.734-9.099 19.88-9.768 32.322l-.543 10.097 1.708 10.403c9.105 55.473 61.91 128.607 128.812 178.402 32.308 24.048 66.873 40.504 94.654 45.064l10.403 1.708 10.097-.543c12.442-.669 23.588-4.038 32.322-9.768 7.59-4.98 29.805-27.942 32.372-33.461a18.834 18.834 0 0 0-.015-16c-2.587-5.519-55.23-57.869-60.299-59.964-9.289-3.838-15.054-1.5-28.46 11.543-6.31 6.14-12.149 10.872-15.063 12.208l-4.759 2.183-8 .015-8 .015-9-4.798c-30.915-16.48-61.722-47.287-78.202-78.202l-4.798-9 .015-8 .015-8 2.183-4.759c1.336-2.914 6.068-8.753 12.208-15.063 5.513-5.667 10.712-11.949 11.552-13.959 2.035-4.871 1.894-10.342-.392-15.219-2.587-5.519-55.23-57.869-60.299-59.964-4.935-2.039-10.389-1.907-15.282.368ZM.402 256c0 8.525.154 12.012.34 7.75.189-4.262.189-11.238 0-15.5-.186-4.262-.34-.775-.34 7.75Z"/></g><defs><clipPath id="ka"><path fill="#fff" d="M0 0h512v512H0z"/></clipPath></defs></svg><svg viewBox="0 0 512 512" id="search" xmlns="http://www.w3.org/2000/svg"><g clip-path="url(#la)"><path fill-rule="evenodd" clip-rule="evenodd" d="M232.5 1.018c-33.733 3.748-62.921 12.225-91 26.43C49.836 73.817-5.658 170.364 1.077 271.75c4.231 63.684 29.551 119.81 74.372 164.857 39.535 39.734 88.675 64.288 146.246 73.076l10.805 1.649 23.5.046 23.5.046 12-1.775c85.362-12.628 156.646-64.354 194.521-141.149 35.1-71.17 35.1-153.83 0-225C448.208 66.83 376.245 14.525 292 2.476 278.632.565 244.179-.28 232.5 1.018Zm-4.731 103.96c-61.908 7.85-110.485 54.294-121.338 116.009-1.914 10.882-1.935 34.937-.04 45.531 3.805 21.274 9.808 36.664 21.071 54.019 20.623 31.779 54.602 54.216 92.538 61.102 13.061 2.371 36.332 2.329 49-.088 20.492-3.911 42.32-13.205 57.5-24.483l8-5.943 27.5 27.332c15.125 15.033 28.483 27.83 29.684 28.438 4.793 2.425 11.557.438 14.668-4.309.942-1.438 1.648-4.535 1.648-7.227v-4.712l-28.157-28.27-28.158-28.27 1.408-1.922c16.778-22.909 24.883-41.214 29.083-65.685l2.06-12-.556-15.5-.555-15.5-2.513-10.761c-12.616-54.036-54.382-94.612-108.924-105.82-11.441-2.351-33.128-3.31-43.919-1.941Zm-1.984 24.573c-23.719 3.693-45.424 14.942-63.406 32.86-22.048 21.97-33.611 49.795-33.696 81.089-.038 13.853 1.411 23.465 5.374 35.639 13.363 41.055 46.91 70.507 89.943 78.965 9.737 1.914 32.755 1.626 43-.538 35.316-7.458 65.519-30.581 81.412-62.329C355.578 280.923 360 261.37 360 244c0-71.466-63.347-125.484-134.215-114.449ZM.32 256c0 3.575.182 5.038.403 3.25.222-1.788.222-4.713 0-6.5-.22-1.787-.403-.325-.403 3.25Z"/></g><defs><clipPath id="la"><path fill="#fff" d="M0 0h512v512H0z"/></clipPath></defs></svg><svg viewBox="0 0 512 512" id="telegram" xmlns="http://www.w3.org/2000/svg"><g clip-path="url(#ma)"><path fill-rule="evenodd" clip-rule="evenodd" d="M55.5 1.604C51.65 2.396 44.225 5.126 39 7.67l-9.5 4.625-8.603 8.602-8.602 8.603-4.62 9.5c-2.748 5.652-5.238 12.622-6.147 17.208L0 63.916v384.168l1.528 7.708c.909 4.586 3.399 11.556 6.147 17.208l4.62 9.5 8.602 8.558 8.603 8.557 8 4.106c4.4 2.259 10.925 4.933 14.5 5.943l6.5 1.836h395l6.5-1.836c3.575-1.01 10.1-3.684 14.5-5.943l8-4.106 8.558-8.557 8.557-8.558 4.106-8c4.104-7.996 7.279-17.982 7.279-22.894 0-1.433.45-2.606 1-2.606.663 0 .995-65.406.985-194.25-.01-125.779-.357-193.721-.985-192.75l-.969 1.5-.016-2.856c-.028-5.19-3.128-15.027-7.294-23.144l-4.106-8-8.557-8.603-8.558-8.602-9.5-4.62c-5.652-2.748-12.622-5.238-17.208-6.147L448.084 0 255.292.082 62.5.163l-7 1.441ZM.49 256c0 106.975.117 150.737.26 97.25.143-53.488.143-141.013 0-194.5C.607 105.262.49 149.025.49 256ZM397 131.705c-.825.301-65.691 23.654-144.148 51.897-78.456 28.242-145.175 52.295-148.264 53.451l-5.616 2.101-1.486 2.874c-2.202 4.257-1.817 7.581 1.264 10.925l2.75 2.984 37.5 10.172c20.625 5.595 37.997 10.671 38.605 11.282.608.61 7.288 19.403 14.844 41.762l13.74 40.654 2.731 2.616c3.621 3.47 8.102 4.686 12.645 3.431l3.603-.995 18.189-17.179c10.003-9.449 19.158-18.007 20.342-19.019l2.155-1.839 37.823 25.767c20.803 14.172 39.744 26.418 42.092 27.214l4.269 1.446 4.495-1.258c5.319-1.49 9.932-6.247 11.37-11.728C369.299 355.325 416 146.71 416 144.48c0-7.889-11.392-15.549-19-12.775Zm-123.791 91.13L191.917 269.5l-.623 2.473c-.431 1.71 2.702 12.498 10.163 35 10.332 31.158 11.838 35.065 13.051 33.853.297-.298 1.671-10.168 3.052-21.934 1.382-11.766 2.916-22.361 3.411-23.546.494-1.185 31.423-27.113 68.731-57.617 37.307-30.504 68.394-56.14 69.082-56.969 1.712-2.063.469-4.778-2.141-4.675-1.179.046-38.724 21.084-83.434 46.75Z"/></g><defs><clipPath id="ma"><path fill="#fff" d="M0 0h512v512H0z"/></clipPath></defs></svg><svg viewBox="0 0 512 512" id="user" xmlns="http://www.w3.org/2000/svg"><path fill-rule="evenodd" clip-rule="evenodd" d="M240.955 49.028c-51.078 7.164-90.735 48.507-96.199 100.291l-1.142 10.819 1.21 10.877c5.147 46.287 36.511 83.862 80.497 96.439 39.118 11.185 79.028.428 108.813-29.329 15.618-15.603 24.976-31.822 30.612-53.051l2.542-9.574v-32l-2.603-9.813c-4.735-17.857-11.276-30.808-22.726-44.999-14.484-17.952-35.613-31.154-59.646-37.268l-9.813-2.496-12.5-.407c-6.875-.224-15.445.006-19.045.51Zm-91.192 220.279c-20.604 12.822-41.525 30.934-54.997 47.614-28.137 34.834-44.011 76.502-46.319 121.579l-.614 12 2.333 4.5 2.334 4.5 4.462 2.25 4.462 2.25h389.152l4.462-2.25 4.462-2.25 2.332-4.5 2.331-4.5-.634-12.317c-2.116-41.141-15.289-78.371-40.086-113.292-7.365-10.373-31.159-34.512-42.13-42.743-4.503-3.378-12.281-8.636-17.285-11.685l-9.099-5.543-7.214 5.93c-18.656 15.334-39.03 25.144-63.027 30.346l-10.188 2.208h-37l-10.188-2.208c-23.973-5.197-44.372-15.013-62.978-30.306-3.942-3.239-7.317-5.864-7.5-5.833-.184.032-3.366 1.944-7.071 4.25Z"/></svg><svg viewBox="0 0 512 512" id="viber" xmlns="http://www.w3.org/2000/svg"><g clip-path="url(#oa)"><path fill-rule="evenodd" clip-rule="evenodd" d="M200 1.082c-35.645 1.34-76.344 4.254-104.933 7.512C78.91 10.436 66.871 14.078 55 20.718l-8.5 4.755-10.514 10.513L25.473 46.5 20.718 55C11.18 72.054 9.062 82.668 5.06 133.5-2.43 228.653-1.174 329.511 8.593 417l1.507 13.5 3.285 9.658c1.806 5.312 5.271 13.182 7.7 17.49l4.415 7.833L36 475.999l10.5 10.519 7.842 4.406c4.313 2.424 12.188 5.885 17.5 7.691L81.5 501.9l13.5 1.518c45.548 5.124 110.219 8.563 161 8.563 50.781 0 115.452-3.439 161-8.563l13.5-1.518 9.658-3.285c5.312-1.806 13.187-5.27 17.5-7.698l7.842-4.414 10.501-10.502 10.502-10.501 4.414-7.842c2.428-4.313 5.892-12.188 7.698-17.5l3.285-9.658 1.507-13.5c3.522-31.547 6.349-72.126 7.265-104.29.357-12.535 1.027-23.024 1.489-23.309.461-.286.839-15.819.839-34.519 0-22.412-.341-33.789-1-33.382-.645.398-1-3.471-1-10.886 0-23.052-4.014-84.409-7.564-115.614L501.9 81.5l-3.285-9.658c-1.806-5.312-5.27-13.187-7.698-17.5l-4.414-7.842-10.502-10.501L465.5 25.497l-7.89-4.441c-8.983-5.057-20.676-9.444-29.254-10.975-8.598-1.534-43.502-4.81-69.856-6.558C307.699.156 248.773-.751 200 1.082Zm29 101.508c-1.925.219-8.45.877-14.5 1.461-19.342 1.869-38.387 5.554-46.5 8.998-23.415 9.939-47.792 34.006-56.645 55.923-2.834 7.016-5.555 19.882-7.939 37.528l-1.756 13-.002 23c-.003 23.624 1.126 35.865 5.331 57.805l1.954 10.195 4.967 10c11.079 22.304 34.601 44.123 55.738 51.704l6.352 2.278v17.694c0 10.106.457 18.901 1.067 20.509 2.433 6.423 8.976 10.089 15.748 8.825l3.685-.687 18.5-18.995 18.5-18.994 26-.318c33.628-.411 65.383-4.135 80.934-9.491 23.537-8.107 50.015-32.971 59.727-56.087 7.698-18.322 12.298-61.969 9.896-93.905-1.52-20.211-5.53-43.735-8.97-52.616-8.683-22.419-34.016-47.903-57.067-57.409-7.98-3.291-21.82-6.183-41.02-8.571-11.793-1.468-65.557-2.81-74-1.847Zm-6.5 28.464c-14.174 1.426-36.112 4.898-40.313 6.38-15.132 5.339-30.875 18.444-40.344 33.585-4.581 7.325-5.66 9.991-7.436 18.374-6.613 31.216-6.95 67.962-.925 100.813l2.33 12.706 3.844 7.294 3.844 7.294 10 10c10.012 10.012 16.769 14.784 26.698 18.855 2.916 1.195 5.865 2.531 6.552 2.968l1.25.795v57.945l1.439.552c.792.304 2.052.177 2.8-.281.748-.459 12.772-12.534 26.72-26.834l25.359-26 18.759-.653c33.295-1.159 61.399-5.03 71.816-9.892 17.26-8.056 35.539-26.921 40.756-42.062 2.043-5.93 5.027-24.255 6.415-39.393 2.007-21.889.158-52.252-4.528-74.379-2.951-13.933-12.438-28.046-26.428-39.316-13.359-10.762-21.004-13.466-49.108-17.374-13.555-1.884-65.508-2.784-79.5-1.377Zm28.071 33.517c-4.092 4.093-.15 6.952 10.929 7.929 19.503 1.719 36.265 10.765 47.973 25.892 8.649 11.174 12.704 22.572 14.091 39.608.381 4.675 1.115 9.314 1.631 10.31 1.163 2.24 5.642 1.927 7.161-.5l1.058-1.69-1.224-11.01c-.673-6.056-2.168-14.07-3.322-17.81-6.953-22.539-23.121-40.172-44.903-48.97-12.496-5.047-30.121-7.031-33.394-3.759Zm-58.2 11.267c-10.167 6.572-16.739 15.903-16.665 23.662.044 4.656 8.563 24.97 16.325 38.928 15.205 27.344 36.428 49.601 62.925 65.991 16.935 10.476 39.254 20.6 45.32 20.559 8.104-.055 20.636-10.175 25.348-20.469l2.531-5.527-.653-2.972c-.792-3.605-6.457-8.772-20.002-18.244-17.238-12.054-19.441-12.217-29.179-2.152L272.142 282h-4.374c-9.78 0-28.361-12.068-37.49-24.349-6.015-8.093-12.278-21.415-12.278-26.119v-3.674l6.379-6.179c6.921-6.705 8.14-9.101 7.193-14.146-.812-4.332-13.507-23.476-20.038-30.218L206.387 172h-8.077l-5.939 3.838Zm64.64 8.649c-1.809 2.179-.428 6.4 2.254 6.893 1.229.226 5.16.939 8.735 1.583 9.199 1.659 16.132 5.103 22.611 11.231C298.887 212.021 304 223.789 304 235.01c0 2.525.54 5.13 1.2 5.79 1.543 1.543 5.057 1.543 6.6 0 2.87-2.87.583-17.904-4.35-28.601l-3.367-7.301-6.292-6.274c-3.938-3.928-8.722-7.453-12.791-9.427-11.621-5.638-25.308-7.941-27.989-4.71Zm6.997 20.22c-2.314 1.621-2.622 4.539-.651 6.174.746.619 3.499 1.526 6.118 2.015 8.237 1.539 12.897 6.355 14.518 15.005 1.121 5.979 2.411 8.099 4.929 8.099 4.238 0 5.256-5.69 2.607-14.568-2.794-9.363-10.37-15.737-20.635-17.36l-4.879-.771-2.007 1.406ZM.45 256c0 18.975.134 26.738.298 17.25.165-9.488.165-25.012 0-34.5C.584 229.262.45 237.025.45 256Z"/></g><defs><clipPath id="oa"><path fill="#fff" d="M0 0h512v512H0z"/></clipPath></defs></svg><svg viewBox="0 0 512 512" id="whatsapp" xmlns="http://www.w3.org/2000/svg"><g clip-path="url(#pa)"><path fill-rule="evenodd" clip-rule="evenodd" d="M114.609 1.046C70.902 6.223 33.582 32.18 14.029 71 8.667 81.646 3.896 95.759 1.86 107L.5 114.5v285l1.86 8.46c5.637 25.663 16.96 47.09 34.14 64.609 18.97 19.343 41.697 31.538 69.23 37.145l8.77 1.786h283l9-1.815c47.372-9.552 83.828-41.521 98.906-86.734 1.917-5.748 4.005-14.501 4.641-19.451.635-4.95 1.559-9.781 2.054-10.736 1.264-2.441 1.163-275.72-.101-273.764l-.969 1.5-.016-3.843c-.027-6.878-4.063-23.926-8.123-34.311-16.045-41.048-52.056-70.961-96.392-80.07l-8-1.644L260 .431c-76.175-.111-141.601.166-145.391.615ZM243 97.055c-61.271 6.669-112.61 46.941-132.43 103.882-1.966 5.647-4.567 14.834-5.782 20.415L102.58 231.5v41l2.208 10.148c2.957 13.587 8.332 28.771 14.321 40.452l4.923 9.601-13.978 40.854c-7.687 22.471-13.763 41.069-13.5 41.331.261.262 19.706-5.652 43.21-13.142l42.736-13.618 8 3.914c23.485 11.489 52.56 16.965 79.3 14.935 71.022-5.391 127.518-54.821 142.838-124.975l1.856-8.5.003-21.5.003-21.5-2.324-10.381C397.989 156.755 348.257 109.248 285 98.633c-12.195-2.046-31.153-2.759-42-1.578ZM.486 256c0 75.625.12 106.563.264 68.75.145-37.812.145-99.687 0-137.5C.605 149.438.486 180.375.486 256ZM248.5 121.603c-33.777 3.389-62.57 17.124-85.094 40.592-17.069 17.784-28.206 39.043-33.567 64.071l-2.191 10.234.021 15.5.022 15.5 2.17 10.234c3.571 16.837 10.182 32.847 18.692 45.266l3.769 5.5-8.129 23.949c-4.471 13.171-7.999 24.078-7.84 24.237.158.159 11.456-3.276 25.105-7.632l24.816-7.922 7.613 4.392c31.352 18.086 72.319 21.842 107.951 9.898 31.98-10.719 60.228-35.464 75.585-66.211 8.91-17.838 12.974-35.587 12.983-56.711.013-27.734-6.603-49.586-22.026-72.754-19.252-28.919-51.981-50.307-86.085-56.254-8.861-1.545-27.075-2.563-33.795-1.889Zm-48 60.734c-4.561 2.084-11.305 10.032-14.835 17.483l-3.165 6.68v21l2.883 7.836c3.1 8.426 13.412 24.686 23.365 36.84 13.382 16.342 30.973 31.093 46.252 38.783 9.195 4.628 27.816 11.211 38.268 13.528l7.768 1.722 6.943-1.568c8.957-2.023 16.07-5.671 22.156-11.364l4.87-4.556 1.498-5.042c.823-2.773 1.497-7.454 1.497-10.402v-5.359l-16.939-8.331c-9.317-4.582-18.174-8.567-19.681-8.855l-2.742-.524-2.569 2.688c-1.413 1.478-5.183 5.931-8.378 9.896L281.882 290h-2.719c-5.795 0-22.96-9.67-34.385-19.371-7.861-6.674-22.778-25.961-22.778-29.45 0-1.333 1.902-4.605 4.372-7.52 4.77-5.629 7.628-10.6 7.628-13.266 0-2.251-12.98-33.732-14.96-36.282l-1.54-1.983-7-.581c-4.892-.406-7.903-.168-10 .79Z"/></g><defs><clipPath id="pa"><path fill="#fff" d="M0 0h512v512H0z"/></clipPath></defs></svg></svg>