<svg width="513" height="512" viewBox="0 0 513 512" fill="none" xmlns="http://www.w3.org/2000/svg">
<path fill-rule="evenodd" clip-rule="evenodd" d="M172.141 103.058C170.526 103.707 168.73 105.396 167.843 107.1L167.141 108.451V114.806V121.162L168.374 123.266C169.093 124.494 170.322 125.71 171.324 126.185L173.042 127H185.841H198.641V137V147H178.799H158.956L156.924 147.988C155.592 148.634 147.011 156.867 132.04 171.863L109.19 194.75L108.176 197L107.163 199.25L107.152 213.125L107.141 227H94.6409H82.1409V214.574V202.148L81.0159 200.5C80.3969 199.594 79.1034 198.423 78.1409 197.898L76.3909 196.945L69.8019 197.098L63.2124 197.25L61.8324 198.281C61.0739 198.848 59.9889 199.933 59.4219 200.693L58.3909 202.074V256.5V310.927L59.4219 312.308C59.9889 313.067 61.0739 314.152 61.8334 314.719L63.2144 315.75H70.3909H77.5674L78.9449 314.722C79.7024 314.156 80.7454 312.879 81.2619 311.883L82.2019 310.072L82.1584 297.536L82.1149 285H94.6279H107.141L107.152 295.375L107.163 305.75L108.082 307.774C109.046 309.897 129.022 329.856 170.141 369.783L179.391 378.764L184.141 381.134C186.753 382.437 190.241 383.89 191.891 384.364L194.891 385.225L232.13 385.381L269.37 385.537L271.88 388.102C274.953 391.242 278.487 392.93 282.842 393.337L286.141 393.645V396.029C286.141 407.269 292.26 417.124 301.709 421.098L304.391 422.226L318.141 422.381L331.891 422.537L333.631 421.643C338.654 419.065 338.909 412.099 334.084 409.25L332.391 408.25L319.641 408L306.891 407.75L305.253 406.76C304.289 406.177 303.106 404.748 302.378 403.287L301.141 400.804V397.152V393.5H316.035H330.929L333.16 392.375L335.391 391.25L336.516 389.019L337.641 386.788V371.235V355.682L338.379 353.196C338.804 351.766 339.773 350.081 340.662 349.23L342.206 347.75H345.215H348.223L349.661 349.36C350.556 350.362 351.59 352.579 352.399 355.231C353.82 359.889 355.459 362.267 357.976 363.318L359.609 364L375.25 363.99C395.364 363.978 398.608 363.524 406.391 359.638C417.981 353.85 426.905 343.035 430.434 330.5L431.349 327.25L431.62 297.75L431.891 268.25L433.49 265.947C436.944 260.974 439.285 253.835 440.188 245.524L440.755 240.297L440.168 235.08C438.579 220.961 430.701 207.543 418.666 198.458C414.275 195.143 406.344 191.33 401.171 190.047L396.95 189H389.891H382.831L378.611 190.052C373.886 191.23 367.445 194.058 363.804 196.553C362.477 197.463 358.656 200.861 355.313 204.104L349.236 210H341.938H334.641V197.091V184.182L333.848 181.466L333.055 178.75L318.223 163.947L303.391 149.144L301.108 148.072L298.825 147H275.983H253.141V137V127L266.016 126.999L278.891 126.999L280.631 126.124C281.588 125.644 282.882 124.486 283.506 123.551L284.641 121.852V115V108.148L283.516 106.495C282.897 105.586 281.756 104.372 280.979 103.796L279.568 102.75L226.479 102.653C191.889 102.59 172.955 102.731 172.141 103.058ZM384.641 219.77C373.881 222.774 367.891 233.139 370.121 244.895C371.288 251.051 375.867 256.739 381.99 259.639L385.391 261.25H390.891H396.391L399.141 259.952C413.671 253.09 415.84 233.139 403.078 223.744C397.522 219.653 390.487 218.137 384.641 219.77ZM265.762 246.247C261.075 248.284 258.865 251.653 258.158 257.841C257.56 263.065 255.687 268.773 253.189 272.977C252.063 274.873 251.141 276.527 251.141 276.652C251.141 276.778 253.277 276.916 255.888 276.96C265.449 277.122 267.427 275.384 268.585 265.799L269.063 261.847L270.611 260.299L272.158 258.75L277.595 258.468L283.032 258.186L284.33 257.336C286.299 256.046 287.224 254.283 287.224 251.82C287.224 249.249 286.118 247.273 284.091 246.225L282.69 245.5L275.041 245.52L267.391 245.539L265.762 246.247ZM191.141 284.5V311H196.891H202.641V294.824V278.648L203.77 276.949C204.391 276.015 205.901 274.744 207.126 274.125L209.353 273H224.918H240.483L242.648 271.856C243.838 271.226 245.28 270.085 245.851 269.319L246.891 267.927V265.339V262.75L245.776 261.187C245.162 260.327 243.891 259.258 242.95 258.812L241.24 258H216.19H191.141V284.5ZM161.891 267.248C155.632 269.452 154.738 278.037 160.331 282.219L161.71 283.25L167.675 283.417L173.641 283.584L173.63 278.667L173.619 273.75L172.7 271.75C171.608 269.371 170.493 268.305 168.014 267.269C165.775 266.334 164.5 266.33 161.891 267.248ZM243.793 289.968C241.817 291.186 240.68 292.868 240.316 295.115L240.037 296.836L241.108 298.935C241.85 300.391 242.747 301.28 244.035 301.837C245.055 302.278 246.351 302.846 246.914 303.1C247.477 303.353 248.256 304.053 248.644 304.655L249.35 305.75L249.644 314L249.938 322.25L250.959 324.5C252.39 327.652 255.487 330.282 258.954 331.29C265.568 333.213 271.853 330.251 274.142 324.132L275.141 321.463L275.148 313.856C275.153 308.773 275.363 305.84 275.781 305.014C276.125 304.334 277.621 303.096 279.105 302.264L281.804 300.75L282.544 298.712C283.551 295.938 282.999 293.377 280.899 291.085L279.219 289.25L262.305 289.116L245.391 288.983L243.793 289.968ZM400.641 299.329C399.317 299.862 398.062 301.187 396.346 303.862C394.484 306.764 394.319 306.831 388.239 307.175L384.087 307.409L381.385 308.731C378.422 310.181 376.225 312.61 374.505 316.335L373.391 318.75V332.115V345.48L374.969 347.059L376.548 348.638L379.011 348.875C381.999 349.162 384.286 348.136 385.382 346.017L386.141 344.55V334.509V324.468L386.849 322.773C387.929 320.188 389.626 319.362 394.588 319.004L398.931 318.691L401.398 317.497C408.81 313.909 411.92 305.546 407.49 301.116L405.765 299.391L403.578 299.209C402.375 299.109 401.053 299.162 400.641 299.329Z" fill="#3F3F3F"/>
</svg>
